%TF.GenerationSoftware,KiCad,Pcbnew,9.0.3*%
%TF.CreationDate,2025-10-28T00:37:02+09:00*%
%TF.ProjectId,vespa_bottom_plate,76657370-615f-4626-9f74-746f6d5f706c,rev?*%
%TF.SameCoordinates,Original*%
%TF.FileFunction,Copper,L2,Bot*%
%TF.FilePolarity,Positive*%
%FSLAX46Y46*%
G04 Gerber Fmt 4.6, Leading zero omitted, Abs format (unit mm)*
G04 Created by KiCad (PCBNEW 9.0.3) date 2025-10-28 00:37:02*
%MOMM*%
%LPD*%
G01*
G04 APERTURE LIST*
G04 APERTURE END LIST*
%TA.AperFunction,Conductor*%
%TO.N,GND*%
G36*
X159391061Y-67176097D02*
G01*
X159522973Y-67189089D01*
X159546801Y-67193828D01*
X159667793Y-67230531D01*
X159690245Y-67239832D01*
X159696936Y-67243408D01*
X159801738Y-67299426D01*
X159821949Y-67312930D01*
X159919677Y-67393132D01*
X159936867Y-67410322D01*
X160017069Y-67508050D01*
X160030573Y-67528261D01*
X160090166Y-67639751D01*
X160099469Y-67662209D01*
X160136169Y-67783192D01*
X160140911Y-67807032D01*
X160153903Y-67938937D01*
X160154500Y-67951092D01*
X160154500Y-83946627D01*
X160190541Y-84197303D01*
X160190543Y-84197313D01*
X160261894Y-84440312D01*
X160367093Y-84670666D01*
X160367106Y-84670689D01*
X160504016Y-84883725D01*
X160504020Y-84883731D01*
X160669868Y-85075131D01*
X160861268Y-85240979D01*
X160861274Y-85240983D01*
X161074310Y-85377893D01*
X161074333Y-85377906D01*
X161304687Y-85483105D01*
X161304691Y-85483106D01*
X161304693Y-85483107D01*
X161547692Y-85554458D01*
X161798371Y-85590500D01*
X161798374Y-85590500D01*
X174751626Y-85590500D01*
X174751629Y-85590500D01*
X175002308Y-85554458D01*
X175245307Y-85483107D01*
X175245310Y-85483105D01*
X175245312Y-85483105D01*
X175475666Y-85377906D01*
X175475670Y-85377903D01*
X175475678Y-85377900D01*
X175688732Y-85240979D01*
X175880131Y-85075131D01*
X176045979Y-84883732D01*
X176182900Y-84670678D01*
X176182903Y-84670670D01*
X176182906Y-84670666D01*
X176288105Y-84440312D01*
X176288105Y-84440310D01*
X176288107Y-84440307D01*
X176359458Y-84197308D01*
X176395500Y-83946629D01*
X176395500Y-83820000D01*
X176395500Y-83754108D01*
X176395500Y-80538713D01*
X299004500Y-80538713D01*
X299004500Y-80751286D01*
X299037753Y-80961239D01*
X299103444Y-81163414D01*
X299199951Y-81352820D01*
X299324890Y-81524786D01*
X299475213Y-81675109D01*
X299647179Y-81800048D01*
X299647181Y-81800049D01*
X299647184Y-81800051D01*
X299836588Y-81896557D01*
X300038757Y-81962246D01*
X300248713Y-81995500D01*
X300248714Y-81995500D01*
X300461286Y-81995500D01*
X300461287Y-81995500D01*
X300671243Y-81962246D01*
X300873412Y-81896557D01*
X301062816Y-81800051D01*
X301084789Y-81784086D01*
X301234786Y-81675109D01*
X301234788Y-81675106D01*
X301234792Y-81675104D01*
X301385104Y-81524792D01*
X301385106Y-81524788D01*
X301385109Y-81524786D01*
X301510048Y-81352820D01*
X301510047Y-81352820D01*
X301510051Y-81352816D01*
X301606557Y-81163412D01*
X301672246Y-80961243D01*
X301705500Y-80751287D01*
X301705500Y-80538713D01*
X301672246Y-80328757D01*
X301606557Y-80126588D01*
X301510051Y-79937184D01*
X301510049Y-79937181D01*
X301510048Y-79937179D01*
X301385109Y-79765213D01*
X301234786Y-79614890D01*
X301062820Y-79489951D01*
X300873414Y-79393444D01*
X300873413Y-79393443D01*
X300873412Y-79393443D01*
X300671243Y-79327754D01*
X300671241Y-79327753D01*
X300671240Y-79327753D01*
X300509957Y-79302208D01*
X300461287Y-79294500D01*
X300248713Y-79294500D01*
X300200042Y-79302208D01*
X300038760Y-79327753D01*
X299836585Y-79393444D01*
X299647179Y-79489951D01*
X299475213Y-79614890D01*
X299324890Y-79765213D01*
X299199951Y-79937179D01*
X299103444Y-80126585D01*
X299037753Y-80328760D01*
X299004500Y-80538713D01*
X176395500Y-80538713D01*
X176395500Y-67951092D01*
X176396097Y-67938938D01*
X176401990Y-67879108D01*
X176409089Y-67807022D01*
X176413828Y-67783200D01*
X176450532Y-67662202D01*
X176459830Y-67639757D01*
X176519427Y-67528259D01*
X176532930Y-67508050D01*
X176577898Y-67453256D01*
X176613137Y-67410316D01*
X176630316Y-67393137D01*
X176728052Y-67312928D01*
X176748261Y-67299426D01*
X176859757Y-67239830D01*
X176882202Y-67230532D01*
X177003200Y-67193828D01*
X177027024Y-67189089D01*
X177158939Y-67176097D01*
X177171093Y-67175500D01*
X177230892Y-67175500D01*
X302194108Y-67175500D01*
X302255933Y-67175500D01*
X302264042Y-67175765D01*
X302286774Y-67177254D01*
X302518114Y-67192417D01*
X302534172Y-67194532D01*
X302779888Y-67243408D01*
X302795554Y-67247606D01*
X302946736Y-67298925D01*
X303032788Y-67328136D01*
X303047765Y-67334339D01*
X303201844Y-67410322D01*
X303272460Y-67445146D01*
X303286508Y-67453256D01*
X303494815Y-67592443D01*
X303507679Y-67602314D01*
X303696033Y-67767497D01*
X303707502Y-67778966D01*
X303754667Y-67832747D01*
X303847794Y-67938938D01*
X303872685Y-67967320D01*
X303882559Y-67980188D01*
X304021743Y-68188492D01*
X304029853Y-68202539D01*
X304140657Y-68427227D01*
X304146864Y-68442213D01*
X304227393Y-68679445D01*
X304231591Y-68695111D01*
X304280465Y-68940813D01*
X304282583Y-68956895D01*
X304299235Y-69210956D01*
X304299500Y-69219066D01*
X304299500Y-140330933D01*
X304299235Y-140339043D01*
X304282583Y-140593104D01*
X304280465Y-140609186D01*
X304231591Y-140854888D01*
X304227393Y-140870554D01*
X304146864Y-141107786D01*
X304140657Y-141122772D01*
X304029853Y-141347460D01*
X304021743Y-141361507D01*
X303882559Y-141569811D01*
X303872685Y-141582679D01*
X303707502Y-141771033D01*
X303696033Y-141782502D01*
X303507679Y-141947685D01*
X303494811Y-141957559D01*
X303286507Y-142096743D01*
X303272460Y-142104853D01*
X303047772Y-142215657D01*
X303032786Y-142221864D01*
X302795554Y-142302393D01*
X302779888Y-142306591D01*
X302534186Y-142355465D01*
X302518104Y-142357583D01*
X302264043Y-142374235D01*
X302255933Y-142374500D01*
X242000892Y-142374500D01*
X241935000Y-142374500D01*
X241775654Y-142374500D01*
X241617181Y-142391156D01*
X241458704Y-142407812D01*
X241458703Y-142407813D01*
X241146985Y-142474070D01*
X241146984Y-142474071D01*
X240843894Y-142572550D01*
X240552742Y-142702178D01*
X240552737Y-142702181D01*
X240276753Y-142861520D01*
X240276752Y-142861520D01*
X240018916Y-143048851D01*
X239782091Y-143262091D01*
X239568851Y-143498916D01*
X239381520Y-143756752D01*
X239381520Y-143756753D01*
X239222181Y-144032737D01*
X239222178Y-144032742D01*
X239092550Y-144323894D01*
X238994071Y-144626984D01*
X238994070Y-144626985D01*
X238927813Y-144938703D01*
X238927812Y-144938704D01*
X238894500Y-145255657D01*
X238894500Y-164460933D01*
X238894235Y-164469043D01*
X238877583Y-164723104D01*
X238875465Y-164739186D01*
X238826591Y-164984888D01*
X238822393Y-165000554D01*
X238741864Y-165237786D01*
X238735657Y-165252772D01*
X238624853Y-165477460D01*
X238616743Y-165491507D01*
X238477559Y-165699811D01*
X238467685Y-165712679D01*
X238302502Y-165901033D01*
X238291033Y-165912502D01*
X238102679Y-166077685D01*
X238089811Y-166087559D01*
X237881507Y-166226743D01*
X237867460Y-166234853D01*
X237642772Y-166345657D01*
X237627786Y-166351864D01*
X237390554Y-166432393D01*
X237374888Y-166436591D01*
X237129186Y-166485465D01*
X237113104Y-166487583D01*
X236859043Y-166504235D01*
X236850933Y-166504500D01*
X201080583Y-166504500D01*
X201073630Y-166504305D01*
X200855700Y-166492066D01*
X200841882Y-166490509D01*
X200630136Y-166454532D01*
X200616580Y-166451438D01*
X200410188Y-166391978D01*
X200397063Y-166387385D01*
X200198630Y-166305192D01*
X200186100Y-166299158D01*
X199998116Y-166195262D01*
X199986343Y-166187865D01*
X199811167Y-166063572D01*
X199800295Y-166054901D01*
X199637570Y-165909480D01*
X199632516Y-165904702D01*
X182126517Y-148398703D01*
X182109176Y-148381360D01*
X182109175Y-148381360D01*
X182072856Y-148345041D01*
X182072857Y-148345041D01*
X181967236Y-148239420D01*
X181736307Y-148049901D01*
X181731476Y-148046673D01*
X181487926Y-147883938D01*
X181487908Y-147883927D01*
X181224454Y-147743109D01*
X181224447Y-147743105D01*
X181224440Y-147743102D01*
X180948448Y-147628782D01*
X180690970Y-147550677D01*
X180662570Y-147542062D01*
X180662569Y-147542061D01*
X180662560Y-147542059D01*
X180662549Y-147542056D01*
X180369575Y-147483782D01*
X180369559Y-147483779D01*
X180144735Y-147461637D01*
X180072268Y-147454500D01*
X180072265Y-147454500D01*
X175266093Y-147454500D01*
X175253939Y-147453903D01*
X175122033Y-147440911D01*
X175098192Y-147436169D01*
X174977209Y-147399469D01*
X174954751Y-147390166D01*
X174843261Y-147330573D01*
X174823050Y-147317069D01*
X174725322Y-147236867D01*
X174708132Y-147219677D01*
X174627930Y-147121949D01*
X174614426Y-147101738D01*
X174554833Y-146990248D01*
X174545530Y-146967790D01*
X174508828Y-146846801D01*
X174504089Y-146822973D01*
X174491097Y-146691061D01*
X174490500Y-146678907D01*
X174490500Y-145308713D01*
X212644500Y-145308713D01*
X212644500Y-145521286D01*
X212677753Y-145731239D01*
X212743444Y-145933414D01*
X212839951Y-146122820D01*
X212964890Y-146294786D01*
X213115213Y-146445109D01*
X213287179Y-146570048D01*
X213287181Y-146570049D01*
X213287184Y-146570051D01*
X213476588Y-146666557D01*
X213678757Y-146732246D01*
X213888713Y-146765500D01*
X213888714Y-146765500D01*
X214101286Y-146765500D01*
X214101287Y-146765500D01*
X214311243Y-146732246D01*
X214513412Y-146666557D01*
X214702816Y-146570051D01*
X214724789Y-146554086D01*
X214874786Y-146445109D01*
X214874788Y-146445106D01*
X214874792Y-146445104D01*
X215025104Y-146294792D01*
X215025106Y-146294788D01*
X215025109Y-146294786D01*
X215150048Y-146122820D01*
X215150047Y-146122820D01*
X215150051Y-146122816D01*
X215246557Y-145933412D01*
X215312246Y-145731243D01*
X215345500Y-145521287D01*
X215345500Y-145308713D01*
X215312246Y-145098757D01*
X215246557Y-144896588D01*
X215150051Y-144707184D01*
X215150049Y-144707181D01*
X215150048Y-144707179D01*
X215025109Y-144535213D01*
X214874786Y-144384890D01*
X214702820Y-144259951D01*
X214513414Y-144163444D01*
X214513413Y-144163443D01*
X214513412Y-144163443D01*
X214311243Y-144097754D01*
X214311241Y-144097753D01*
X214311240Y-144097753D01*
X214149957Y-144072208D01*
X214101287Y-144064500D01*
X213888713Y-144064500D01*
X213840042Y-144072208D01*
X213678760Y-144097753D01*
X213476585Y-144163444D01*
X213287179Y-144259951D01*
X213115213Y-144384890D01*
X212964890Y-144535213D01*
X212839951Y-144707179D01*
X212743444Y-144896585D01*
X212677753Y-145098760D01*
X212644500Y-145308713D01*
X174490500Y-145308713D01*
X174490500Y-143383374D01*
X174490500Y-143383371D01*
X174454458Y-143132692D01*
X174383107Y-142889693D01*
X174383106Y-142889691D01*
X174383105Y-142889687D01*
X174277906Y-142659333D01*
X174277893Y-142659310D01*
X174140983Y-142446274D01*
X174140979Y-142446268D01*
X173975131Y-142254868D01*
X173783731Y-142089020D01*
X173783725Y-142089016D01*
X173570689Y-141952106D01*
X173570666Y-141952093D01*
X173340312Y-141846894D01*
X173097313Y-141775543D01*
X173097303Y-141775541D01*
X172973384Y-141757724D01*
X172846629Y-141739500D01*
X172785892Y-141739500D01*
X163895892Y-141739500D01*
X163830000Y-141739500D01*
X163703371Y-141739500D01*
X163639993Y-141748612D01*
X163452696Y-141775541D01*
X163452686Y-141775543D01*
X163209687Y-141846894D01*
X162979333Y-141952093D01*
X162979310Y-141952106D01*
X162766274Y-142089016D01*
X162766268Y-142089020D01*
X162574868Y-142254868D01*
X162409020Y-142446268D01*
X162409016Y-142446274D01*
X162272106Y-142659310D01*
X162272093Y-142659333D01*
X162166894Y-142889687D01*
X162095543Y-143132686D01*
X162095541Y-143132696D01*
X162059500Y-143383372D01*
X162059500Y-146678907D01*
X162058903Y-146691061D01*
X162058903Y-146691062D01*
X162045911Y-146822967D01*
X162041169Y-146846807D01*
X162004469Y-146967790D01*
X161995166Y-146990248D01*
X161935573Y-147101738D01*
X161922069Y-147121949D01*
X161841867Y-147219677D01*
X161824677Y-147236867D01*
X161726949Y-147317069D01*
X161706738Y-147330573D01*
X161595248Y-147390166D01*
X161572790Y-147399469D01*
X161451807Y-147436169D01*
X161427967Y-147440911D01*
X161330698Y-147450491D01*
X161296060Y-147453903D01*
X161283907Y-147454500D01*
X156552581Y-147454500D01*
X156552553Y-147454502D01*
X156477732Y-147454502D01*
X156410710Y-147461102D01*
X156180440Y-147483781D01*
X156180424Y-147483784D01*
X155887450Y-147542058D01*
X155887439Y-147542061D01*
X155601552Y-147628784D01*
X155325560Y-147743104D01*
X155325546Y-147743111D01*
X155062092Y-147883929D01*
X155062074Y-147883940D01*
X154813688Y-148049906D01*
X154582765Y-148239420D01*
X154529955Y-148292230D01*
X154477144Y-148345042D01*
X154430550Y-148391635D01*
X154430549Y-148391636D01*
X136961635Y-165860551D01*
X136961634Y-165860552D01*
X136917509Y-165904676D01*
X136912456Y-165909454D01*
X136749691Y-166054909D01*
X136738828Y-166063572D01*
X136705022Y-166087559D01*
X136563661Y-166187860D01*
X136551887Y-166195258D01*
X136363897Y-166299157D01*
X136351368Y-166305190D01*
X136152935Y-166387383D01*
X136139810Y-166391976D01*
X135933419Y-166451436D01*
X135919863Y-166454530D01*
X135708117Y-166490507D01*
X135694299Y-166492064D01*
X135476330Y-166504305D01*
X135469377Y-166504500D01*
X99699067Y-166504500D01*
X99690957Y-166504235D01*
X99436895Y-166487583D01*
X99420814Y-166485465D01*
X99385770Y-166478494D01*
X99175111Y-166436591D01*
X99159445Y-166432393D01*
X98922213Y-166351864D01*
X98907227Y-166345657D01*
X98682539Y-166234853D01*
X98668492Y-166226743D01*
X98460188Y-166087559D01*
X98447320Y-166077685D01*
X98258966Y-165912502D01*
X98247497Y-165901033D01*
X98082314Y-165712679D01*
X98072440Y-165699811D01*
X97933256Y-165491507D01*
X97925146Y-165477460D01*
X97814464Y-165253019D01*
X97814339Y-165252765D01*
X97808135Y-165237786D01*
X97727606Y-165000554D01*
X97723408Y-164984888D01*
X97714736Y-164941292D01*
X97674532Y-164739172D01*
X97672417Y-164723114D01*
X97655765Y-164469042D01*
X97655500Y-164460933D01*
X97655500Y-145308713D01*
X121204500Y-145308713D01*
X121204500Y-145521286D01*
X121237753Y-145731239D01*
X121303444Y-145933414D01*
X121399951Y-146122820D01*
X121524890Y-146294786D01*
X121675213Y-146445109D01*
X121847179Y-146570048D01*
X121847181Y-146570049D01*
X121847184Y-146570051D01*
X122036588Y-146666557D01*
X122238757Y-146732246D01*
X122448713Y-146765500D01*
X122448714Y-146765500D01*
X122661286Y-146765500D01*
X122661287Y-146765500D01*
X122871243Y-146732246D01*
X123073412Y-146666557D01*
X123262816Y-146570051D01*
X123284789Y-146554086D01*
X123434786Y-146445109D01*
X123434788Y-146445106D01*
X123434792Y-146445104D01*
X123585104Y-146294792D01*
X123585106Y-146294788D01*
X123585109Y-146294786D01*
X123710048Y-146122820D01*
X123710047Y-146122820D01*
X123710051Y-146122816D01*
X123806557Y-145933412D01*
X123872246Y-145731243D01*
X123905500Y-145521287D01*
X123905500Y-145308713D01*
X123872246Y-145098757D01*
X123806557Y-144896588D01*
X123710051Y-144707184D01*
X123710049Y-144707181D01*
X123710048Y-144707179D01*
X123585109Y-144535213D01*
X123434786Y-144384890D01*
X123262820Y-144259951D01*
X123073414Y-144163444D01*
X123073413Y-144163443D01*
X123073412Y-144163443D01*
X122871243Y-144097754D01*
X122871241Y-144097753D01*
X122871240Y-144097753D01*
X122709957Y-144072208D01*
X122661287Y-144064500D01*
X122448713Y-144064500D01*
X122400042Y-144072208D01*
X122238760Y-144097753D01*
X122036585Y-144163444D01*
X121847179Y-144259951D01*
X121675213Y-144384890D01*
X121524890Y-144535213D01*
X121399951Y-144707179D01*
X121303444Y-144896585D01*
X121237753Y-145098760D01*
X121204500Y-145308713D01*
X97655500Y-145308713D01*
X97655500Y-145255657D01*
X97639010Y-145098760D01*
X97622188Y-144938708D01*
X97555928Y-144626981D01*
X97457447Y-144323887D01*
X97327824Y-144032747D01*
X97168479Y-143756753D01*
X97168479Y-143756752D01*
X96981148Y-143498916D01*
X96855957Y-143359878D01*
X96767909Y-143262091D01*
X96666541Y-143170819D01*
X96531083Y-143048851D01*
X96529669Y-143047824D01*
X96416885Y-142965881D01*
X96273246Y-142861520D01*
X95997262Y-142702181D01*
X95997257Y-142702178D01*
X95997253Y-142702176D01*
X95706113Y-142572553D01*
X95706108Y-142572551D01*
X95706105Y-142572550D01*
X95532710Y-142516211D01*
X95403019Y-142474072D01*
X95403016Y-142474071D01*
X95403015Y-142474071D01*
X95403014Y-142474070D01*
X95134245Y-142416942D01*
X95091295Y-142407812D01*
X94955458Y-142393535D01*
X94774346Y-142374500D01*
X94774342Y-142374500D01*
X34294067Y-142374500D01*
X34285957Y-142374235D01*
X34031895Y-142357583D01*
X34015814Y-142355465D01*
X33980770Y-142348494D01*
X33770111Y-142306591D01*
X33754445Y-142302393D01*
X33517213Y-142221864D01*
X33502227Y-142215657D01*
X33277539Y-142104853D01*
X33263492Y-142096743D01*
X33055188Y-141957559D01*
X33042320Y-141947685D01*
X32853966Y-141782502D01*
X32842497Y-141771033D01*
X32677314Y-141582679D01*
X32667440Y-141569811D01*
X32528256Y-141361507D01*
X32520146Y-141347460D01*
X32409464Y-141123019D01*
X32409339Y-141122765D01*
X32403135Y-141107786D01*
X32322606Y-140870554D01*
X32318408Y-140854888D01*
X32309736Y-140811292D01*
X32269532Y-140609172D01*
X32267417Y-140593114D01*
X32250765Y-140339042D01*
X32250500Y-140330933D01*
X32250500Y-128798713D01*
X34844500Y-128798713D01*
X34844500Y-129011286D01*
X34877753Y-129221239D01*
X34943444Y-129423414D01*
X35039951Y-129612820D01*
X35164890Y-129784786D01*
X35315213Y-129935109D01*
X35487179Y-130060048D01*
X35487181Y-130060049D01*
X35487184Y-130060051D01*
X35676588Y-130156557D01*
X35878757Y-130222246D01*
X36088713Y-130255500D01*
X36088714Y-130255500D01*
X36301286Y-130255500D01*
X36301287Y-130255500D01*
X36511243Y-130222246D01*
X36713412Y-130156557D01*
X36902816Y-130060051D01*
X36924789Y-130044086D01*
X37074786Y-129935109D01*
X37074788Y-129935106D01*
X37074792Y-129935104D01*
X37225104Y-129784792D01*
X37225106Y-129784788D01*
X37225109Y-129784786D01*
X37350048Y-129612820D01*
X37350047Y-129612820D01*
X37350051Y-129612816D01*
X37446557Y-129423412D01*
X37512246Y-129221243D01*
X37545500Y-129011287D01*
X37545500Y-128798713D01*
X299004500Y-128798713D01*
X299004500Y-129011286D01*
X299037753Y-129221239D01*
X299103444Y-129423414D01*
X299199951Y-129612820D01*
X299324890Y-129784786D01*
X299475213Y-129935109D01*
X299647179Y-130060048D01*
X299647181Y-130060049D01*
X299647184Y-130060051D01*
X299836588Y-130156557D01*
X300038757Y-130222246D01*
X300248713Y-130255500D01*
X300248714Y-130255500D01*
X300461286Y-130255500D01*
X300461287Y-130255500D01*
X300671243Y-130222246D01*
X300873412Y-130156557D01*
X301062816Y-130060051D01*
X301084789Y-130044086D01*
X301234786Y-129935109D01*
X301234788Y-129935106D01*
X301234792Y-129935104D01*
X301385104Y-129784792D01*
X301385106Y-129784788D01*
X301385109Y-129784786D01*
X301510048Y-129612820D01*
X301510047Y-129612820D01*
X301510051Y-129612816D01*
X301606557Y-129423412D01*
X301672246Y-129221243D01*
X301705500Y-129011287D01*
X301705500Y-128798713D01*
X301672246Y-128588757D01*
X301606557Y-128386588D01*
X301510051Y-128197184D01*
X301510049Y-128197181D01*
X301510048Y-128197179D01*
X301385109Y-128025213D01*
X301234786Y-127874890D01*
X301062820Y-127749951D01*
X300873414Y-127653444D01*
X300873413Y-127653443D01*
X300873412Y-127653443D01*
X300671243Y-127587754D01*
X300671241Y-127587753D01*
X300671240Y-127587753D01*
X300509957Y-127562208D01*
X300461287Y-127554500D01*
X300248713Y-127554500D01*
X300200042Y-127562208D01*
X300038760Y-127587753D01*
X299836585Y-127653444D01*
X299647179Y-127749951D01*
X299475213Y-127874890D01*
X299324890Y-128025213D01*
X299199951Y-128197179D01*
X299103444Y-128386585D01*
X299037753Y-128588760D01*
X299004500Y-128798713D01*
X37545500Y-128798713D01*
X37512246Y-128588757D01*
X37446557Y-128386588D01*
X37350051Y-128197184D01*
X37350049Y-128197181D01*
X37350048Y-128197179D01*
X37225109Y-128025213D01*
X37074786Y-127874890D01*
X36902820Y-127749951D01*
X36713414Y-127653444D01*
X36713413Y-127653443D01*
X36713412Y-127653443D01*
X36511243Y-127587754D01*
X36511241Y-127587753D01*
X36511240Y-127587753D01*
X36349957Y-127562208D01*
X36301287Y-127554500D01*
X36088713Y-127554500D01*
X36040042Y-127562208D01*
X35878760Y-127587753D01*
X35676585Y-127653444D01*
X35487179Y-127749951D01*
X35315213Y-127874890D01*
X35164890Y-128025213D01*
X35039951Y-128197179D01*
X34943444Y-128386585D01*
X34877753Y-128588760D01*
X34844500Y-128798713D01*
X32250500Y-128798713D01*
X32250500Y-88793713D01*
X155494500Y-88793713D01*
X155494500Y-89006286D01*
X155527753Y-89216239D01*
X155593444Y-89418414D01*
X155689951Y-89607820D01*
X155814890Y-89779786D01*
X155965213Y-89930109D01*
X156137179Y-90055048D01*
X156137181Y-90055049D01*
X156137184Y-90055051D01*
X156326588Y-90151557D01*
X156528757Y-90217246D01*
X156738713Y-90250500D01*
X156738714Y-90250500D01*
X156951286Y-90250500D01*
X156951287Y-90250500D01*
X157161243Y-90217246D01*
X157363412Y-90151557D01*
X157552816Y-90055051D01*
X157574789Y-90039086D01*
X157724786Y-89930109D01*
X157724788Y-89930106D01*
X157724792Y-89930104D01*
X157875104Y-89779792D01*
X157875106Y-89779788D01*
X157875109Y-89779786D01*
X158000048Y-89607820D01*
X158000047Y-89607820D01*
X158000051Y-89607816D01*
X158096557Y-89418412D01*
X158162246Y-89216243D01*
X158195500Y-89006287D01*
X158195500Y-88793713D01*
X178354500Y-88793713D01*
X178354500Y-89006286D01*
X178387753Y-89216239D01*
X178453444Y-89418414D01*
X178549951Y-89607820D01*
X178674890Y-89779786D01*
X178825213Y-89930109D01*
X178997179Y-90055048D01*
X178997181Y-90055049D01*
X178997184Y-90055051D01*
X179186588Y-90151557D01*
X179388757Y-90217246D01*
X179598713Y-90250500D01*
X179598714Y-90250500D01*
X179811286Y-90250500D01*
X179811287Y-90250500D01*
X180021243Y-90217246D01*
X180223412Y-90151557D01*
X180412816Y-90055051D01*
X180434789Y-90039086D01*
X180584786Y-89930109D01*
X180584788Y-89930106D01*
X180584792Y-89930104D01*
X180735104Y-89779792D01*
X180735106Y-89779788D01*
X180735109Y-89779786D01*
X180860048Y-89607820D01*
X180860047Y-89607820D01*
X180860051Y-89607816D01*
X180956557Y-89418412D01*
X181022246Y-89216243D01*
X181055500Y-89006287D01*
X181055500Y-88793713D01*
X181022246Y-88583757D01*
X180956557Y-88381588D01*
X180860051Y-88192184D01*
X180860049Y-88192181D01*
X180860048Y-88192179D01*
X180735109Y-88020213D01*
X180584786Y-87869890D01*
X180412820Y-87744951D01*
X180223414Y-87648444D01*
X180223413Y-87648443D01*
X180223412Y-87648443D01*
X180021243Y-87582754D01*
X180021241Y-87582753D01*
X180021240Y-87582753D01*
X179859957Y-87557208D01*
X179811287Y-87549500D01*
X179598713Y-87549500D01*
X179550042Y-87557208D01*
X179388760Y-87582753D01*
X179186585Y-87648444D01*
X178997179Y-87744951D01*
X178825213Y-87869890D01*
X178674890Y-88020213D01*
X178549951Y-88192179D01*
X178453444Y-88381585D01*
X178387753Y-88583760D01*
X178354500Y-88793713D01*
X158195500Y-88793713D01*
X158162246Y-88583757D01*
X158096557Y-88381588D01*
X158000051Y-88192184D01*
X158000049Y-88192181D01*
X158000048Y-88192179D01*
X157875109Y-88020213D01*
X157724786Y-87869890D01*
X157552820Y-87744951D01*
X157363414Y-87648444D01*
X157363413Y-87648443D01*
X157363412Y-87648443D01*
X157161243Y-87582754D01*
X157161241Y-87582753D01*
X157161240Y-87582753D01*
X156999957Y-87557208D01*
X156951287Y-87549500D01*
X156738713Y-87549500D01*
X156690042Y-87557208D01*
X156528760Y-87582753D01*
X156326585Y-87648444D01*
X156137179Y-87744951D01*
X155965213Y-87869890D01*
X155814890Y-88020213D01*
X155689951Y-88192179D01*
X155593444Y-88381585D01*
X155527753Y-88583760D01*
X155494500Y-88793713D01*
X32250500Y-88793713D01*
X32250500Y-80538713D01*
X34844500Y-80538713D01*
X34844500Y-80751286D01*
X34877753Y-80961239D01*
X34943444Y-81163414D01*
X35039951Y-81352820D01*
X35164890Y-81524786D01*
X35315213Y-81675109D01*
X35487179Y-81800048D01*
X35487181Y-81800049D01*
X35487184Y-81800051D01*
X35676588Y-81896557D01*
X35878757Y-81962246D01*
X36088713Y-81995500D01*
X36088714Y-81995500D01*
X36301286Y-81995500D01*
X36301287Y-81995500D01*
X36511243Y-81962246D01*
X36713412Y-81896557D01*
X36902816Y-81800051D01*
X36924789Y-81784086D01*
X37074786Y-81675109D01*
X37074788Y-81675106D01*
X37074792Y-81675104D01*
X37225104Y-81524792D01*
X37225106Y-81524788D01*
X37225109Y-81524786D01*
X37350048Y-81352820D01*
X37350047Y-81352820D01*
X37350051Y-81352816D01*
X37446557Y-81163412D01*
X37512246Y-80961243D01*
X37545500Y-80751287D01*
X37545500Y-80538713D01*
X37512246Y-80328757D01*
X37446557Y-80126588D01*
X37350051Y-79937184D01*
X37350049Y-79937181D01*
X37350048Y-79937179D01*
X37225109Y-79765213D01*
X37074786Y-79614890D01*
X36902820Y-79489951D01*
X36713414Y-79393444D01*
X36713413Y-79393443D01*
X36713412Y-79393443D01*
X36511243Y-79327754D01*
X36511241Y-79327753D01*
X36511240Y-79327753D01*
X36349957Y-79302208D01*
X36301287Y-79294500D01*
X36088713Y-79294500D01*
X36040042Y-79302208D01*
X35878760Y-79327753D01*
X35676585Y-79393444D01*
X35487179Y-79489951D01*
X35315213Y-79614890D01*
X35164890Y-79765213D01*
X35039951Y-79937179D01*
X34943444Y-80126585D01*
X34877753Y-80328760D01*
X34844500Y-80538713D01*
X32250500Y-80538713D01*
X32250500Y-69219066D01*
X32250765Y-69210957D01*
X32254819Y-69149108D01*
X32267417Y-68956883D01*
X32269531Y-68940829D01*
X32318409Y-68695107D01*
X32322606Y-68679445D01*
X32346197Y-68609945D01*
X32403138Y-68442205D01*
X32409336Y-68427239D01*
X32520149Y-68202533D01*
X32528252Y-68188498D01*
X32667448Y-67980176D01*
X32677305Y-67967331D01*
X32842502Y-67778960D01*
X32853960Y-67767502D01*
X33042331Y-67602305D01*
X33055176Y-67592448D01*
X33263498Y-67453252D01*
X33277533Y-67445149D01*
X33502239Y-67334336D01*
X33517205Y-67328138D01*
X33684945Y-67271197D01*
X33754445Y-67247606D01*
X33770107Y-67243409D01*
X34015829Y-67194531D01*
X34031883Y-67192417D01*
X34264848Y-67177148D01*
X34285958Y-67175765D01*
X34294067Y-67175500D01*
X34355892Y-67175500D01*
X159319108Y-67175500D01*
X159378907Y-67175500D01*
X159391061Y-67176097D01*
G37*
%TD.AperFunction*%
%TD*%
M02*
