M48
; DRILL file {KiCad 9.0.3} date 2025-10-28T23:14:44+0900
; FORMAT={-:-/ absolute / inch / decimal}
; #@! TF.CreationDate,2025-10-28T23:14:44+09:00
; #@! TF.GenerationSoftware,Kicad,Pcbnew,9.0.3
; #@! TF.FileFunction,NonPlated,1,2,NPTH
FMAT,2
INCH
; #@! TA.AperFunction,NonPlated,NPTH,ComponentDrill
T1C0.0394
; #@! TA.AperFunction,NonPlated,NPTH,ComponentDrill
T2C0.0591
; #@! TA.AperFunction,NonPlated,NPTH,ComponentDrill
T3C0.0669
; #@! TA.AperFunction,NonPlated,NPTH,ComponentDrill
T4C0.0787
; #@! TA.AperFunction,NonPlated,NPTH,ComponentDrill
T5C0.0827
; #@! TA.AperFunction,NonPlated,NPTH,ComponentDrill
T6C0.1181
; #@! TA.AperFunction,NonPlated,NPTH,ComponentDrill
T7C0.1693
; #@! TA.AperFunction,NonPlated,NPTH,ComponentDrill
T8C0.1890
%
G90
G05
T1
X2.1969Y-2.7815
X2.1969Y-3.5315
X2.1969Y-4.2815
X2.1969Y-5.0315
X2.9469Y-2.7815
X2.9469Y-3.5315
X2.9469Y-4.2815
X2.9469Y-5.0315
X3.6969Y-2.7815
X3.6969Y-3.5315
X3.6969Y-4.2815
X3.6969Y-5.0315
X4.4469Y-2.7815
X4.4469Y-3.5315
X4.4469Y-4.2815
X4.4469Y-5.0315
X4.4469Y-5.9815
X5.1969Y-2.7815
X5.1969Y-3.5315
X5.1969Y-4.2815
X5.1969Y-5.0315
X5.1969Y-5.9815
X5.9469Y-2.7815
X5.9469Y-3.5315
X5.9469Y-4.2815
X5.9469Y-5.0315
X7.6969Y-2.7815
X7.6969Y-3.5315
X7.6969Y-4.2815
X7.6969Y-5.0315
X8.4469Y-2.7815
X8.4469Y-3.5315
X8.4469Y-4.2815
X8.4469Y-5.0315
X8.4469Y-5.9815
X9.1969Y-2.7815
X9.1969Y-3.5315
X9.1969Y-4.2815
X9.1969Y-5.0315
X9.1969Y-5.9815
X9.9469Y-2.7815
X9.9469Y-3.5315
X9.9469Y-4.2815
X9.9469Y-5.0315
X10.6969Y-2.7815
X10.6969Y-3.5315
X10.6969Y-4.2815
X10.6969Y-5.0315
X11.4469Y-2.7815
X11.4469Y-3.5315
X11.4469Y-4.2815
X11.4469Y-5.0315
T3
X1.7835Y-3.0
X1.7835Y-3.75
X1.7835Y-4.5
X1.7835Y-5.25
X2.2165Y-3.0
X2.2165Y-3.75
X2.2165Y-4.5
X2.2165Y-5.25
X2.5335Y-3.0
X2.5335Y-3.75
X2.5335Y-4.5
X2.5335Y-5.25
X2.9665Y-3.0
X2.9665Y-3.75
X2.9665Y-4.5
X2.9665Y-5.25
X3.2835Y-3.0
X3.2835Y-3.75
X3.2835Y-4.5
X3.2835Y-5.25
X3.7165Y-3.0
X3.7165Y-3.75
X3.7165Y-4.5
X3.7165Y-5.25
X4.0335Y-3.0
X4.0335Y-3.75
X4.0335Y-4.5
X4.0335Y-5.25
X4.0335Y-6.2
X4.4665Y-3.0
X4.4665Y-3.75
X4.4665Y-4.5
X4.4665Y-5.25
X4.4665Y-6.2
X4.7835Y-3.0
X4.7835Y-3.75
X4.7835Y-4.5
X4.7835Y-5.25
X4.7835Y-6.2
X5.2165Y-3.0
X5.2165Y-3.75
X5.2165Y-4.5
X5.2165Y-5.25
X5.2165Y-6.2
X5.5335Y-3.0
X5.5335Y-3.75
X5.5335Y-4.5
X5.5335Y-5.25
X5.9665Y-3.0
X5.9665Y-3.75
X5.9665Y-4.5
X5.9665Y-5.25
X7.2835Y-3.0
X7.2835Y-3.75
X7.2835Y-4.5
X7.2835Y-5.25
X7.7165Y-3.0
X7.7165Y-3.75
X7.7165Y-4.5
X7.7165Y-5.25
X8.0335Y-3.0
X8.0335Y-3.75
X8.0335Y-4.5
X8.0335Y-5.25
X8.0335Y-6.2
X8.4665Y-3.0
X8.4665Y-3.75
X8.4665Y-4.5
X8.4665Y-5.25
X8.4665Y-6.2
X8.7835Y-3.0
X8.7835Y-3.75
X8.7835Y-4.5
X8.7835Y-5.25
X8.7835Y-6.2
X9.2165Y-3.0
X9.2165Y-3.75
X9.2165Y-4.5
X9.2165Y-5.25
X9.2165Y-6.2
X9.5335Y-3.0
X9.5335Y-3.75
X9.5335Y-4.5
X9.5335Y-5.25
X9.9665Y-3.0
X9.9665Y-3.75
X9.9665Y-4.5
X9.9665Y-5.25
X10.2835Y-3.0
X10.2835Y-3.75
X10.2835Y-4.5
X10.2835Y-5.25
X10.7165Y-3.0
X10.7165Y-3.75
X10.7165Y-4.5
X10.7165Y-5.25
X11.0335Y-3.0
X11.0335Y-3.75
X11.0335Y-4.5
X11.0335Y-5.25
X11.4665Y-3.0
X11.4665Y-3.75
X11.4665Y-4.5
X11.4665Y-5.25
T4
X1.8Y-3.0
X1.8Y-3.75
X1.8Y-4.5
X1.8Y-5.25
X2.2Y-3.0
X2.2Y-3.75
X2.2Y-4.5
X2.2Y-5.25
X2.55Y-3.0
X2.55Y-3.75
X2.55Y-4.5
X2.55Y-5.25
X2.95Y-3.0
X2.95Y-3.75
X2.95Y-4.5
X2.95Y-5.25
X3.3Y-3.0
X3.3Y-3.75
X3.3Y-4.5
X3.3Y-5.25
X3.7Y-3.0
X3.7Y-3.75
X3.7Y-4.5
X3.7Y-5.25
X4.05Y-3.0
X4.05Y-3.75
X4.05Y-4.5
X4.05Y-5.25
X4.05Y-6.2
X4.45Y-3.0
X4.45Y-3.75
X4.45Y-4.5
X4.45Y-5.25
X4.45Y-6.2
X4.8Y-3.0
X4.8Y-3.75
X4.8Y-4.5
X4.8Y-5.25
X4.8Y-6.2
X5.2Y-3.0
X5.2Y-3.75
X5.2Y-4.5
X5.2Y-5.25
X5.2Y-6.2
X5.55Y-3.0
X5.55Y-3.75
X5.55Y-4.5
X5.55Y-5.25
X5.95Y-3.0
X5.95Y-3.75
X5.95Y-4.5
X5.95Y-5.25
X7.3Y-3.0
X7.3Y-3.75
X7.3Y-4.5
X7.3Y-5.25
X7.7Y-3.0
X7.7Y-3.75
X7.7Y-4.5
X7.7Y-5.25
X8.05Y-3.0
X8.05Y-3.75
X8.05Y-4.5
X8.05Y-5.25
X8.05Y-6.2
X8.45Y-3.0
X8.45Y-3.75
X8.45Y-4.5
X8.45Y-5.25
X8.45Y-6.2
X8.8Y-3.0
X8.8Y-3.75
X8.8Y-4.5
X8.8Y-5.25
X8.8Y-6.2
X9.2Y-3.0
X9.2Y-3.75
X9.2Y-4.5
X9.2Y-5.25
X9.2Y-6.2
X9.55Y-3.0
X9.55Y-3.75
X9.55Y-4.5
X9.55Y-5.25
X9.95Y-3.0
X9.95Y-3.75
X9.95Y-4.5
X9.95Y-5.25
X10.3Y-3.0
X10.3Y-3.75
X10.3Y-4.5
X10.3Y-5.25
X10.7Y-3.0
X10.7Y-3.75
X10.7Y-4.5
X10.7Y-5.25
X11.05Y-3.0
X11.05Y-3.75
X11.05Y-4.5
X11.05Y-5.25
X11.45Y-3.0
X11.45Y-3.75
X11.45Y-4.5
X11.45Y-5.25
T5
X6.625Y-3.0048
T6
X1.8031Y-3.1457
X1.8031Y-3.8957
X1.8031Y-4.6457
X1.8031Y-5.3957
X1.85Y-2.9
X1.85Y-3.65
X1.85Y-4.4
X1.85Y-5.15
X2.0Y-3.2323
X2.0Y-3.9823
X2.0Y-4.7323
X2.0Y-5.4823
X2.1Y-2.8
X2.1Y-3.55
X2.1Y-4.3
X2.1Y-5.05
X2.5531Y-3.1457
X2.5531Y-3.8957
X2.5531Y-4.6457
X2.5531Y-5.3957
X2.6Y-2.9
X2.6Y-3.65
X2.6Y-4.4
X2.6Y-5.15
X2.75Y-3.2323
X2.75Y-3.9823
X2.75Y-4.7323
X2.75Y-5.4823
X2.85Y-2.8
X2.85Y-3.55
X2.85Y-4.3
X2.85Y-5.05
X3.3031Y-3.1457
X3.3031Y-3.8957
X3.3031Y-4.6457
X3.3031Y-5.3957
X3.35Y-2.9
X3.35Y-3.65
X3.35Y-4.4
X3.35Y-5.15
X3.5Y-3.2323
X3.5Y-3.9823
X3.5Y-4.7323
X3.5Y-5.4823
X3.6Y-2.8
X3.6Y-3.55
X3.6Y-4.3
X3.6Y-5.05
X4.0531Y-3.1457
X4.0531Y-3.8957
X4.0531Y-4.6457
X4.0531Y-5.3957
X4.0531Y-6.3457
X4.1Y-2.9
X4.1Y-3.65
X4.1Y-4.4
X4.1Y-5.15
X4.1Y-6.1
X4.25Y-3.2323
X4.25Y-3.9823
X4.25Y-4.7323
X4.25Y-5.4823
X4.25Y-6.4323
X4.35Y-2.8
X4.35Y-3.55
X4.35Y-4.3
X4.35Y-5.05
X4.35Y-6.0
X4.8031Y-3.1457
X4.8031Y-3.8957
X4.8031Y-4.6457
X4.8031Y-5.3957
X4.8031Y-6.3457
X4.85Y-2.9
X4.85Y-3.65
X4.85Y-4.4
X4.85Y-5.15
X4.85Y-6.1
X5.0Y-3.2323
X5.0Y-3.9823
X5.0Y-4.7323
X5.0Y-5.4823
X5.0Y-6.4323
X5.1Y-2.8
X5.1Y-3.55
X5.1Y-4.3
X5.1Y-5.05
X5.1Y-6.0
X5.5531Y-3.1457
X5.5531Y-3.8957
X5.5531Y-4.6457
X5.5531Y-5.3957
X5.6Y-2.9
X5.6Y-3.65
X5.6Y-4.4
X5.6Y-5.15
X5.75Y-3.2323
X5.75Y-3.9823
X5.75Y-4.7323
X5.75Y-5.4823
X5.85Y-2.8
X5.85Y-3.55
X5.85Y-4.3
X5.85Y-5.05
X7.3031Y-3.1457
X7.3031Y-3.8957
X7.3031Y-4.6457
X7.3031Y-5.3957
X7.35Y-2.9
X7.35Y-3.65
X7.35Y-4.4
X7.35Y-5.15
X7.5Y-3.2323
X7.5Y-3.9823
X7.5Y-4.7323
X7.5Y-5.4823
X7.6Y-2.8
X7.6Y-3.55
X7.6Y-4.3
X7.6Y-5.05
X8.0531Y-3.1457
X8.0531Y-3.8957
X8.0531Y-4.6457
X8.0531Y-5.3957
X8.0531Y-6.3457
X8.1Y-2.9
X8.1Y-3.65
X8.1Y-4.4
X8.1Y-5.15
X8.1Y-6.1
X8.25Y-3.2323
X8.25Y-3.9823
X8.25Y-4.7323
X8.25Y-5.4823
X8.25Y-6.4323
X8.35Y-2.8
X8.35Y-3.55
X8.35Y-4.3
X8.35Y-5.05
X8.35Y-6.0
X8.8031Y-3.1457
X8.8031Y-3.8957
X8.8031Y-4.6457
X8.8031Y-5.3957
X8.8031Y-6.3457
X8.85Y-2.9
X8.85Y-3.65
X8.85Y-4.4
X8.85Y-5.15
X8.85Y-6.1
X9.0Y-3.2323
X9.0Y-3.9823
X9.0Y-4.7323
X9.0Y-5.4823
X9.0Y-6.4323
X9.1Y-2.8
X9.1Y-3.55
X9.1Y-4.3
X9.1Y-5.05
X9.1Y-6.0
X9.5531Y-3.1457
X9.5531Y-3.8957
X9.5531Y-4.6457
X9.5531Y-5.3957
X9.6Y-2.9
X9.6Y-3.65
X9.6Y-4.4
X9.6Y-5.15
X9.75Y-3.2323
X9.75Y-3.9823
X9.75Y-4.7323
X9.75Y-5.4823
X9.85Y-2.8
X9.85Y-3.55
X9.85Y-4.3
X9.85Y-5.05
X10.3031Y-3.1457
X10.3031Y-3.8957
X10.3031Y-4.6457
X10.3031Y-5.3957
X10.35Y-2.9
X10.35Y-3.65
X10.35Y-4.4
X10.35Y-5.15
X10.5Y-3.2323
X10.5Y-3.9823
X10.5Y-4.7323
X10.5Y-5.4823
X10.6Y-2.8
X10.6Y-3.55
X10.6Y-4.3
X10.6Y-5.05
X11.0531Y-3.1457
X11.0531Y-3.8957
X11.0531Y-4.6457
X11.0531Y-5.3957
X11.1Y-2.9
X11.1Y-3.65
X11.1Y-4.4
X11.1Y-5.15
X11.25Y-3.2323
X11.25Y-3.9823
X11.25Y-4.7323
X11.25Y-5.4823
X11.35Y-2.8
X11.35Y-3.55
X11.35Y-4.3
X11.35Y-5.05
T7
X4.825Y-5.725
X6.175Y-3.5
X7.075Y-3.5
X8.425Y-5.725
T8
X2.0Y-3.0
X2.0Y-3.75
X2.0Y-4.5
X2.0Y-5.25
X2.75Y-3.0
X2.75Y-3.75
X2.75Y-4.5
X2.75Y-5.25
X3.5Y-3.0
X3.5Y-3.75
X3.5Y-4.5
X3.5Y-5.25
X4.25Y-3.0
X4.25Y-3.75
X4.25Y-4.5
X4.25Y-5.25
X4.25Y-6.2
X5.0Y-3.0
X5.0Y-3.75
X5.0Y-4.5
X5.0Y-5.25
X5.0Y-6.2
X5.75Y-3.0
X5.75Y-3.75
X5.75Y-4.5
X5.75Y-5.25
X7.5Y-3.0
X7.5Y-3.75
X7.5Y-4.5
X7.5Y-5.25
X8.25Y-3.0
X8.25Y-3.75
X8.25Y-4.5
X8.25Y-5.25
X8.25Y-6.2
X9.0Y-3.0
X9.0Y-3.75
X9.0Y-4.5
X9.0Y-5.25
X9.0Y-6.2
X9.75Y-3.0
X9.75Y-3.75
X9.75Y-4.5
X9.75Y-5.25
X10.5Y-3.0
X10.5Y-3.75
X10.5Y-4.5
X10.5Y-5.25
X11.25Y-3.0
X11.25Y-3.75
X11.25Y-4.5
X11.25Y-5.25
T2
G00X6.625Y-2.8178
M15
G01X6.625Y-2.8375
M16
G05
M30
