%TF.GenerationSoftware,KiCad,Pcbnew,9.0.3*%
%TF.CreationDate,2025-10-28T00:46:09+09:00*%
%TF.ProjectId,vespa,76657370-612e-46b6-9963-61645f706362,rev?*%
%TF.SameCoordinates,Original*%
%TF.FileFunction,Soldermask,Bot*%
%TF.FilePolarity,Negative*%
%FSLAX46Y46*%
G04 Gerber Fmt 4.6, Leading zero omitted, Abs format (unit mm)*
G04 Created by KiCad (PCBNEW 9.0.3) date 2025-10-28 00:46:09*
%MOMM*%
%LPD*%
G01*
G04 APERTURE LIST*
G04 Aperture macros list*
%AMRoundRect*
0 Rectangle with rounded corners*
0 $1 Rounding radius*
0 $2 $3 $4 $5 $6 $7 $8 $9 X,Y pos of 4 corners*
0 Add a 4 corners polygon primitive as box body*
4,1,4,$2,$3,$4,$5,$6,$7,$8,$9,$2,$3,0*
0 Add four circle primitives for the rounded corners*
1,1,$1+$1,$2,$3*
1,1,$1+$1,$4,$5*
1,1,$1+$1,$6,$7*
1,1,$1+$1,$8,$9*
0 Add four rect primitives between the rounded corners*
20,1,$1+$1,$2,$3,$4,$5,0*
20,1,$1+$1,$4,$5,$6,$7,0*
20,1,$1+$1,$6,$7,$8,$9,0*
20,1,$1+$1,$8,$9,$2,$3,0*%
%AMFreePoly0*
4,1,15,-0.616000,0.142500,-0.283500,0.475000,0.521000,0.475000,0.557355,0.467769,0.588175,0.447175,0.608769,0.416355,0.616000,0.380000,0.616000,-0.380000,0.608769,-0.416355,0.588175,-0.447175,0.557355,-0.467769,0.521000,-0.475000,-0.283500,-0.475000,-0.616000,-0.142500,-0.616000,0.142500,-0.616000,0.142500,$1*%
G04 Aperture macros list end*
%ADD10R,1.000000X0.600000*%
%ADD11C,2.000000*%
%ADD12R,2.000000X2.000000*%
%ADD13C,1.400000*%
%ADD14RoundRect,0.250000X0.250000X-0.250000X0.250000X0.250000X-0.250000X0.250000X-0.250000X-0.250000X0*%
%ADD15C,4.500000*%
%ADD16RoundRect,0.095000X-0.921000X-0.380000X0.921000X-0.380000X0.921000X0.380000X-0.921000X0.380000X0*%
%ADD17RoundRect,0.095000X0.921000X0.380000X-0.921000X0.380000X-0.921000X-0.380000X0.921000X-0.380000X0*%
%ADD18FreePoly0,0.000000*%
%ADD19FreePoly0,180.000000*%
%ADD20C,1.500000*%
%ADD21C,1.700000*%
%ADD22C,1.000000*%
%ADD23C,3.000000*%
%ADD24C,4.800000*%
%ADD25R,3.300000X3.000000*%
%ADD26R,3.000000X3.500000*%
%ADD27RoundRect,0.237500X-0.250000X-0.237500X0.250000X-0.237500X0.250000X0.237500X-0.250000X0.237500X0*%
%ADD28R,1.100000X1.500000*%
%ADD29R,0.375000X0.350000*%
%ADD30R,2.100000X0.400000*%
%ADD31RoundRect,0.237500X-0.237500X0.300000X-0.237500X-0.300000X0.237500X-0.300000X0.237500X0.300000X0*%
%ADD32RoundRect,0.150000X0.150000X-0.512500X0.150000X0.512500X-0.150000X0.512500X-0.150000X-0.512500X0*%
G04 APERTURE END LIST*
D10*
%TO.C,U3*%
X169475000Y-99380000D03*
X169475000Y-100330000D03*
X169475000Y-101280000D03*
X167075000Y-101280000D03*
X167075000Y-99380000D03*
%TD*%
D11*
%TO.C,AA Battery*%
X168275000Y-140652500D03*
D12*
X168275000Y-88662500D03*
%TD*%
D13*
%TO.C,SW54*%
X170775000Y-143688000D03*
X168275000Y-146888000D03*
X165775000Y-143688000D03*
%TD*%
D14*
%TO.C,D3*%
X96520000Y-81280000D03*
X96520000Y-83780000D03*
%TD*%
%TO.C,D4*%
X115570000Y-81280000D03*
X115570000Y-83780000D03*
%TD*%
%TO.C,D5*%
X134620000Y-81280000D03*
X134620000Y-83780000D03*
%TD*%
D15*
%TO.C,Ref\u002A\u002A*%
X213995000Y-145415000D03*
%TD*%
%TO.C,Ref\u002A\u002A*%
X122555000Y-145415000D03*
%TD*%
D16*
%TO.C,U1*%
X176530000Y-68995000D03*
X176530000Y-71535000D03*
X176530000Y-74075000D03*
X176530000Y-76615000D03*
X176530000Y-79155000D03*
X176530000Y-81695000D03*
X176530000Y-84235000D03*
D17*
X160020000Y-84235000D03*
X160020000Y-81695000D03*
X160020000Y-79155000D03*
X160020000Y-76615000D03*
X160020000Y-74075000D03*
X160020000Y-71535000D03*
X160020000Y-68995000D03*
D18*
X176930000Y-70265000D03*
X176930000Y-72805000D03*
X176930000Y-75345000D03*
X176930000Y-77885000D03*
X176930000Y-80425000D03*
X176930000Y-82965000D03*
D19*
X159620000Y-82965000D03*
X159620000Y-80425000D03*
X159620000Y-77885000D03*
%TD*%
D15*
%TO.C,Ref\u002A\u002A*%
X156845000Y-88900000D03*
%TD*%
%TO.C,Ref\u002A\u002A*%
X179705000Y-88900000D03*
%TD*%
D20*
%TO.C,SW53*%
X168275000Y-71823000D03*
%TD*%
D14*
%TO.C,D35*%
X274320000Y-121880000D03*
X274320000Y-119380000D03*
%TD*%
D21*
%TO.C,SW36*%
X291250000Y-114300000D03*
D11*
X290830000Y-114300000D03*
D22*
X290750000Y-108750000D03*
D23*
X288290000Y-109220000D03*
X285750000Y-120200000D03*
D24*
X285750000Y-114300000D03*
D23*
X281940000Y-111760000D03*
X280750000Y-118000000D03*
D11*
X280670000Y-114300000D03*
D21*
X280250000Y-114300000D03*
D25*
X278300000Y-111720000D03*
D26*
X277400000Y-118000000D03*
D25*
X291900000Y-109180000D03*
D26*
X289300000Y-120200000D03*
%TD*%
D21*
%TO.C,SW42*%
X151550000Y-133350000D03*
D11*
X151130000Y-133350000D03*
D22*
X151050000Y-127800000D03*
D23*
X148590000Y-128270000D03*
X146050000Y-139250000D03*
D24*
X146050000Y-133350000D03*
D23*
X142240000Y-130810000D03*
X141050000Y-137050000D03*
D11*
X140970000Y-133350000D03*
D21*
X140550000Y-133350000D03*
D25*
X138600000Y-130770000D03*
D26*
X137700000Y-137050000D03*
D25*
X152200000Y-128230000D03*
D26*
X149600000Y-139250000D03*
%TD*%
D21*
%TO.C,SW45*%
X234100000Y-133350000D03*
D11*
X233680000Y-133350000D03*
D22*
X233600000Y-127800000D03*
D23*
X231140000Y-128270000D03*
X228600000Y-139250000D03*
D24*
X228600000Y-133350000D03*
D23*
X224790000Y-130810000D03*
X223600000Y-137050000D03*
D11*
X223520000Y-133350000D03*
D21*
X223100000Y-133350000D03*
D25*
X221150000Y-130770000D03*
D26*
X220250000Y-137050000D03*
D25*
X234750000Y-128230000D03*
D26*
X232150000Y-139250000D03*
%TD*%
D14*
%TO.C,D6*%
X153670000Y-83780000D03*
X153670000Y-81280000D03*
%TD*%
%TO.C,D23*%
X274320000Y-102830000D03*
X274320000Y-100330000D03*
%TD*%
%TO.C,D37*%
X58420000Y-140930000D03*
X58420000Y-138430000D03*
%TD*%
D21*
%TO.C,SW34*%
X253150000Y-114300000D03*
D11*
X252730000Y-114300000D03*
D22*
X252650000Y-108750000D03*
D23*
X250190000Y-109220000D03*
X247650000Y-120200000D03*
D24*
X247650000Y-114300000D03*
D23*
X243840000Y-111760000D03*
X242650000Y-118000000D03*
D11*
X242570000Y-114300000D03*
D21*
X242150000Y-114300000D03*
D25*
X240200000Y-111720000D03*
D26*
X239300000Y-118000000D03*
D25*
X253800000Y-109180000D03*
D26*
X251200000Y-120200000D03*
%TD*%
D14*
%TO.C,D52*%
X236220000Y-165060000D03*
X236220000Y-162560000D03*
%TD*%
D21*
%TO.C,SW33*%
X234100000Y-114300000D03*
D11*
X233680000Y-114300000D03*
D22*
X233600000Y-108750000D03*
D23*
X231140000Y-109220000D03*
X228600000Y-120200000D03*
D24*
X228600000Y-114300000D03*
D23*
X224790000Y-111760000D03*
X223600000Y-118000000D03*
D11*
X223520000Y-114300000D03*
D21*
X223100000Y-114300000D03*
D25*
X221150000Y-111720000D03*
D26*
X220250000Y-118000000D03*
D25*
X234750000Y-109180000D03*
D26*
X232150000Y-120200000D03*
%TD*%
D14*
%TO.C,D11*%
X274320000Y-83780000D03*
X274320000Y-81280000D03*
%TD*%
D21*
%TO.C,SW30*%
X151550000Y-114300000D03*
D11*
X151130000Y-114300000D03*
D22*
X151050000Y-108750000D03*
D23*
X148590000Y-109220000D03*
X146050000Y-120200000D03*
D24*
X146050000Y-114300000D03*
D23*
X142240000Y-111760000D03*
X141050000Y-118000000D03*
D11*
X140970000Y-114300000D03*
D21*
X140550000Y-114300000D03*
D25*
X138600000Y-111720000D03*
D26*
X137700000Y-118000000D03*
D25*
X152200000Y-109180000D03*
D26*
X149600000Y-120200000D03*
%TD*%
D14*
%TO.C,D39*%
X96520000Y-140930000D03*
X96520000Y-138430000D03*
%TD*%
D21*
%TO.C,SW23*%
X272200000Y-95250000D03*
D11*
X271780000Y-95250000D03*
D22*
X271700000Y-89700000D03*
D23*
X269240000Y-90170000D03*
X266700000Y-101150000D03*
D24*
X266700000Y-95250000D03*
D23*
X262890000Y-92710000D03*
X261700000Y-98950000D03*
D11*
X261620000Y-95250000D03*
D21*
X261200000Y-95250000D03*
D25*
X259250000Y-92670000D03*
D26*
X258350000Y-98950000D03*
D25*
X272850000Y-90130000D03*
D26*
X270250000Y-101150000D03*
%TD*%
D14*
%TO.C,D15*%
X96520000Y-102830000D03*
X96520000Y-100330000D03*
%TD*%
%TO.C,D12*%
X293370000Y-83780000D03*
X293370000Y-81280000D03*
%TD*%
%TO.C,D49*%
X115570000Y-165060000D03*
X115570000Y-162560000D03*
%TD*%
D21*
%TO.C,SW6*%
X151550000Y-76200000D03*
D11*
X151130000Y-76200000D03*
D22*
X151050000Y-70650000D03*
D23*
X148590000Y-71120000D03*
X146050000Y-82100000D03*
D24*
X146050000Y-76200000D03*
D23*
X142240000Y-73660000D03*
X141050000Y-79900000D03*
D11*
X140970000Y-76200000D03*
D21*
X140550000Y-76200000D03*
D25*
X138600000Y-73620000D03*
D26*
X137700000Y-79900000D03*
D25*
X152200000Y-71080000D03*
D26*
X149600000Y-82100000D03*
%TD*%
D14*
%TO.C,D24*%
X293370000Y-102830000D03*
X293370000Y-100330000D03*
%TD*%
D21*
%TO.C,SW18*%
X151550000Y-95250000D03*
D11*
X151130000Y-95250000D03*
D22*
X151050000Y-89700000D03*
D23*
X148590000Y-90170000D03*
X146050000Y-101150000D03*
D24*
X146050000Y-95250000D03*
D23*
X142240000Y-92710000D03*
X141050000Y-98950000D03*
D11*
X140970000Y-95250000D03*
D21*
X140550000Y-95250000D03*
D25*
X138600000Y-92670000D03*
D26*
X137700000Y-98950000D03*
D25*
X152200000Y-90130000D03*
D26*
X149600000Y-101150000D03*
%TD*%
D21*
%TO.C,SW27*%
X94400000Y-114300000D03*
D11*
X93980000Y-114300000D03*
D22*
X93900000Y-108750000D03*
D23*
X91440000Y-109220000D03*
X88900000Y-120200000D03*
D24*
X88900000Y-114300000D03*
D23*
X85090000Y-111760000D03*
X83900000Y-118000000D03*
D11*
X83820000Y-114300000D03*
D21*
X83400000Y-114300000D03*
D25*
X81450000Y-111720000D03*
D26*
X80550000Y-118000000D03*
D25*
X95050000Y-109180000D03*
D26*
X92450000Y-120200000D03*
%TD*%
D14*
%TO.C,D19*%
X198120000Y-102830000D03*
X198120000Y-100330000D03*
%TD*%
D21*
%TO.C,SW20*%
X215050000Y-95250000D03*
D11*
X214630000Y-95250000D03*
D22*
X214550000Y-89700000D03*
D23*
X212090000Y-90170000D03*
X209550000Y-101150000D03*
D24*
X209550000Y-95250000D03*
D23*
X205740000Y-92710000D03*
X204550000Y-98950000D03*
D11*
X204470000Y-95250000D03*
D21*
X204050000Y-95250000D03*
D25*
X202100000Y-92670000D03*
D26*
X201200000Y-98950000D03*
D25*
X215700000Y-90130000D03*
D26*
X213100000Y-101150000D03*
%TD*%
D27*
%TO.C,R1*%
X169648500Y-97663000D03*
X171473500Y-97663000D03*
%TD*%
D14*
%TO.C,D21*%
X236220000Y-102830000D03*
X236220000Y-100330000D03*
%TD*%
D28*
%TO.C,U2*%
X168275000Y-94361000D03*
D29*
X169212500Y-93811000D03*
X169212500Y-94361000D03*
X169212500Y-94911000D03*
X167337500Y-94911000D03*
X167337500Y-94361000D03*
X167337500Y-93811000D03*
D30*
X168275000Y-93111000D03*
X168275000Y-95611000D03*
%TD*%
D21*
%TO.C,SW22*%
X253150000Y-95250000D03*
D11*
X252730000Y-95250000D03*
D22*
X252650000Y-89700000D03*
D23*
X250190000Y-90170000D03*
X247650000Y-101150000D03*
D24*
X247650000Y-95250000D03*
D23*
X243840000Y-92710000D03*
X242650000Y-98950000D03*
D11*
X242570000Y-95250000D03*
D21*
X242150000Y-95250000D03*
D25*
X240200000Y-92670000D03*
D26*
X239300000Y-98950000D03*
D25*
X253800000Y-90130000D03*
D26*
X251200000Y-101150000D03*
%TD*%
D21*
%TO.C,SW14*%
X75350000Y-95250000D03*
D11*
X74930000Y-95250000D03*
D22*
X74850000Y-89700000D03*
D23*
X72390000Y-90170000D03*
X69850000Y-101150000D03*
D24*
X69850000Y-95250000D03*
D23*
X66040000Y-92710000D03*
X64850000Y-98950000D03*
D11*
X64770000Y-95250000D03*
D21*
X64350000Y-95250000D03*
D25*
X62400000Y-92670000D03*
D26*
X61500000Y-98950000D03*
D25*
X76000000Y-90130000D03*
D26*
X73400000Y-101150000D03*
%TD*%
D14*
%TO.C,D13*%
X58420000Y-102830000D03*
X58420000Y-100330000D03*
%TD*%
D21*
%TO.C,SW41*%
X132500000Y-133350000D03*
D11*
X132080000Y-133350000D03*
D22*
X132000000Y-127800000D03*
D23*
X129540000Y-128270000D03*
X127000000Y-139250000D03*
D24*
X127000000Y-133350000D03*
D23*
X123190000Y-130810000D03*
X122000000Y-137050000D03*
D11*
X121920000Y-133350000D03*
D21*
X121500000Y-133350000D03*
D25*
X119550000Y-130770000D03*
D26*
X118650000Y-137050000D03*
D25*
X133150000Y-128230000D03*
D26*
X130550000Y-139250000D03*
%TD*%
D21*
%TO.C,SW43*%
X196000000Y-133350000D03*
D11*
X195580000Y-133350000D03*
D22*
X195500000Y-127800000D03*
D23*
X193040000Y-128270000D03*
X190500000Y-139250000D03*
D24*
X190500000Y-133350000D03*
D23*
X186690000Y-130810000D03*
X185500000Y-137050000D03*
D11*
X185420000Y-133350000D03*
D21*
X185000000Y-133350000D03*
D25*
X183050000Y-130770000D03*
D26*
X182150000Y-137050000D03*
D25*
X196650000Y-128230000D03*
D26*
X194050000Y-139250000D03*
%TD*%
D14*
%TO.C,D50*%
X134620000Y-165060000D03*
X134620000Y-162560000D03*
%TD*%
D21*
%TO.C,SW3*%
X94400000Y-76200000D03*
D11*
X93980000Y-76200000D03*
D22*
X93900000Y-70650000D03*
D23*
X91440000Y-71120000D03*
X88900000Y-82100000D03*
D24*
X88900000Y-76200000D03*
D23*
X85090000Y-73660000D03*
X83900000Y-79900000D03*
D11*
X83820000Y-76200000D03*
D21*
X83400000Y-76200000D03*
D25*
X81450000Y-73620000D03*
D26*
X80550000Y-79900000D03*
D25*
X95050000Y-71080000D03*
D26*
X92450000Y-82100000D03*
%TD*%
D21*
%TO.C,SW7*%
X196000000Y-76200000D03*
D11*
X195580000Y-76200000D03*
D22*
X195500000Y-70650000D03*
D23*
X193040000Y-71120000D03*
X190500000Y-82100000D03*
D24*
X190500000Y-76200000D03*
D23*
X186690000Y-73660000D03*
X185500000Y-79900000D03*
D11*
X185420000Y-76200000D03*
D21*
X185000000Y-76200000D03*
D25*
X183050000Y-73620000D03*
D26*
X182150000Y-79900000D03*
D25*
X196650000Y-71080000D03*
D26*
X194050000Y-82100000D03*
%TD*%
D14*
%TO.C,D1*%
X58420000Y-83780000D03*
X58420000Y-81280000D03*
%TD*%
%TO.C,D32*%
X217170000Y-121880000D03*
X217170000Y-119380000D03*
%TD*%
%TO.C,D28*%
X115570000Y-121880000D03*
X115570000Y-119380000D03*
%TD*%
%TO.C,D30*%
X153670000Y-121880000D03*
X153670000Y-119380000D03*
%TD*%
%TO.C,D33*%
X236220000Y-121880000D03*
X236220000Y-119380000D03*
%TD*%
D21*
%TO.C,SW50*%
X132500000Y-157480000D03*
D11*
X132080000Y-157480000D03*
D22*
X132000000Y-151930000D03*
D23*
X129540000Y-152400000D03*
X127000000Y-163380000D03*
D24*
X127000000Y-157480000D03*
D23*
X123190000Y-154940000D03*
X122000000Y-161180000D03*
D11*
X121920000Y-157480000D03*
D21*
X121500000Y-157480000D03*
D25*
X119550000Y-154900000D03*
D26*
X118650000Y-161180000D03*
D25*
X133150000Y-152360000D03*
D26*
X130550000Y-163380000D03*
%TD*%
D21*
%TO.C,SW52*%
X234100000Y-157480000D03*
D11*
X233680000Y-157480000D03*
D22*
X233600000Y-151930000D03*
D23*
X231140000Y-152400000D03*
X228600000Y-163380000D03*
D24*
X228600000Y-157480000D03*
D23*
X224790000Y-154940000D03*
X223600000Y-161180000D03*
D11*
X223520000Y-157480000D03*
D21*
X223100000Y-157480000D03*
D25*
X221150000Y-154900000D03*
D26*
X220250000Y-161180000D03*
D25*
X234750000Y-152360000D03*
D26*
X232150000Y-163380000D03*
%TD*%
D14*
%TO.C,D9*%
X236220000Y-83780000D03*
X236220000Y-81280000D03*
%TD*%
%TO.C,D41*%
X134620000Y-140930000D03*
X134620000Y-138430000D03*
%TD*%
%TO.C,D10*%
X255270000Y-83780000D03*
X255270000Y-81280000D03*
%TD*%
D21*
%TO.C,SW24*%
X291250000Y-95250000D03*
D11*
X290830000Y-95250000D03*
D22*
X290750000Y-89700000D03*
D23*
X288290000Y-90170000D03*
X285750000Y-101150000D03*
D24*
X285750000Y-95250000D03*
D23*
X281940000Y-92710000D03*
X280750000Y-98950000D03*
D11*
X280670000Y-95250000D03*
D21*
X280250000Y-95250000D03*
D25*
X278300000Y-92670000D03*
D26*
X277400000Y-98950000D03*
D25*
X291900000Y-90130000D03*
D26*
X289300000Y-101150000D03*
%TD*%
D21*
%TO.C,SW17*%
X132500000Y-95250000D03*
D11*
X132080000Y-95250000D03*
D22*
X132000000Y-89700000D03*
D23*
X129540000Y-90170000D03*
X127000000Y-101150000D03*
D24*
X127000000Y-95250000D03*
D23*
X123190000Y-92710000D03*
X122000000Y-98950000D03*
D11*
X121920000Y-95250000D03*
D21*
X121500000Y-95250000D03*
D25*
X119550000Y-92670000D03*
D26*
X118650000Y-98950000D03*
D25*
X133150000Y-90130000D03*
D26*
X130550000Y-101150000D03*
%TD*%
D14*
%TO.C,D34*%
X255270000Y-121880000D03*
X255270000Y-119380000D03*
%TD*%
D21*
%TO.C,SW37*%
X56300000Y-133350000D03*
D11*
X55880000Y-133350000D03*
D22*
X55800000Y-127800000D03*
D23*
X53340000Y-128270000D03*
X50800000Y-139250000D03*
D24*
X50800000Y-133350000D03*
D23*
X46990000Y-130810000D03*
X45800000Y-137050000D03*
D11*
X45720000Y-133350000D03*
D21*
X45300000Y-133350000D03*
D25*
X43350000Y-130770000D03*
D26*
X42450000Y-137050000D03*
D25*
X56950000Y-128230000D03*
D26*
X54350000Y-139250000D03*
%TD*%
D14*
%TO.C,D45*%
X236220000Y-140930000D03*
X236220000Y-138430000D03*
%TD*%
%TO.C,D38*%
X77470000Y-140930000D03*
X77470000Y-138430000D03*
%TD*%
%TO.C,D40*%
X115570000Y-140930000D03*
X115570000Y-138430000D03*
%TD*%
D21*
%TO.C,SW5*%
X132500000Y-76200000D03*
D11*
X132080000Y-76200000D03*
D22*
X132000000Y-70650000D03*
D23*
X129540000Y-71120000D03*
X127000000Y-82100000D03*
D24*
X127000000Y-76200000D03*
D23*
X123190000Y-73660000D03*
X122000000Y-79900000D03*
D11*
X121920000Y-76200000D03*
D21*
X121500000Y-76200000D03*
D25*
X119550000Y-73620000D03*
D26*
X118650000Y-79900000D03*
D25*
X133150000Y-71080000D03*
D26*
X130550000Y-82100000D03*
%TD*%
D21*
%TO.C,SW4*%
X113450000Y-76200000D03*
D11*
X113030000Y-76200000D03*
D22*
X112950000Y-70650000D03*
D23*
X110490000Y-71120000D03*
X107950000Y-82100000D03*
D24*
X107950000Y-76200000D03*
D23*
X104140000Y-73660000D03*
X102950000Y-79900000D03*
D11*
X102870000Y-76200000D03*
D21*
X102450000Y-76200000D03*
D25*
X100500000Y-73620000D03*
D26*
X99600000Y-79900000D03*
D25*
X114100000Y-71080000D03*
D26*
X111500000Y-82100000D03*
%TD*%
D21*
%TO.C,SW11*%
X272200000Y-76200000D03*
D11*
X271780000Y-76200000D03*
D22*
X271700000Y-70650000D03*
D23*
X269240000Y-71120000D03*
X266700000Y-82100000D03*
D24*
X266700000Y-76200000D03*
D23*
X262890000Y-73660000D03*
X261700000Y-79900000D03*
D11*
X261620000Y-76200000D03*
D21*
X261200000Y-76200000D03*
D25*
X259250000Y-73620000D03*
D26*
X258350000Y-79900000D03*
D25*
X272850000Y-71080000D03*
D26*
X270250000Y-82100000D03*
%TD*%
D21*
%TO.C,SW13*%
X56300000Y-95250000D03*
D11*
X55880000Y-95250000D03*
D22*
X55800000Y-89700000D03*
D23*
X53340000Y-90170000D03*
X50800000Y-101150000D03*
D24*
X50800000Y-95250000D03*
D23*
X46990000Y-92710000D03*
X45800000Y-98950000D03*
D11*
X45720000Y-95250000D03*
D21*
X45300000Y-95250000D03*
D25*
X43350000Y-92670000D03*
D26*
X42450000Y-98950000D03*
D25*
X56950000Y-90130000D03*
D26*
X54350000Y-101150000D03*
%TD*%
D21*
%TO.C,SW25*%
X56300000Y-114300000D03*
D11*
X55880000Y-114300000D03*
D22*
X55800000Y-108750000D03*
D23*
X53340000Y-109220000D03*
X50800000Y-120200000D03*
D24*
X50800000Y-114300000D03*
D23*
X46990000Y-111760000D03*
X45800000Y-118000000D03*
D11*
X45720000Y-114300000D03*
D21*
X45300000Y-114300000D03*
D25*
X43350000Y-111720000D03*
D26*
X42450000Y-118000000D03*
D25*
X56950000Y-109180000D03*
D26*
X54350000Y-120200000D03*
%TD*%
D21*
%TO.C,SW9*%
X234100000Y-76200000D03*
D11*
X233680000Y-76200000D03*
D22*
X233600000Y-70650000D03*
D23*
X231140000Y-71120000D03*
X228600000Y-82100000D03*
D24*
X228600000Y-76200000D03*
D23*
X224790000Y-73660000D03*
X223600000Y-79900000D03*
D11*
X223520000Y-76200000D03*
D21*
X223100000Y-76200000D03*
D25*
X221150000Y-73620000D03*
D26*
X220250000Y-79900000D03*
D25*
X234750000Y-71080000D03*
D26*
X232150000Y-82100000D03*
%TD*%
D14*
%TO.C,D47*%
X274320000Y-140930000D03*
X274320000Y-138430000D03*
%TD*%
%TO.C,D42*%
X153670000Y-140930000D03*
X153670000Y-138430000D03*
%TD*%
D21*
%TO.C,SW1*%
X56300000Y-76200000D03*
D11*
X55880000Y-76200000D03*
D22*
X55800000Y-70650000D03*
D23*
X53340000Y-71120000D03*
X50800000Y-82100000D03*
D24*
X50800000Y-76200000D03*
D23*
X46990000Y-73660000D03*
X45800000Y-79900000D03*
D11*
X45720000Y-76200000D03*
D21*
X45300000Y-76200000D03*
D25*
X43350000Y-73620000D03*
D26*
X42450000Y-79900000D03*
D25*
X56950000Y-71080000D03*
D26*
X54350000Y-82100000D03*
%TD*%
D14*
%TO.C,D18*%
X153670000Y-102830000D03*
X153670000Y-100330000D03*
%TD*%
D21*
%TO.C,SW39*%
X94400000Y-133350000D03*
D11*
X93980000Y-133350000D03*
D22*
X93900000Y-127800000D03*
D23*
X91440000Y-128270000D03*
X88900000Y-139250000D03*
D24*
X88900000Y-133350000D03*
D23*
X85090000Y-130810000D03*
X83900000Y-137050000D03*
D11*
X83820000Y-133350000D03*
D21*
X83400000Y-133350000D03*
D25*
X81450000Y-130770000D03*
D26*
X80550000Y-137050000D03*
D25*
X95050000Y-128230000D03*
D26*
X92450000Y-139250000D03*
%TD*%
D31*
%TO.C,C1*%
X170688000Y-93498500D03*
X170688000Y-95223500D03*
%TD*%
D21*
%TO.C,SW16*%
X113450000Y-95250000D03*
D11*
X113030000Y-95250000D03*
D22*
X112950000Y-89700000D03*
D23*
X110490000Y-90170000D03*
X107950000Y-101150000D03*
D24*
X107950000Y-95250000D03*
D23*
X104140000Y-92710000D03*
X102950000Y-98950000D03*
D11*
X102870000Y-95250000D03*
D21*
X102450000Y-95250000D03*
D25*
X100500000Y-92670000D03*
D26*
X99600000Y-98950000D03*
D25*
X114100000Y-90130000D03*
D26*
X111500000Y-101150000D03*
%TD*%
D21*
%TO.C,SW26*%
X75350000Y-114300000D03*
D11*
X74930000Y-114300000D03*
D22*
X74850000Y-108750000D03*
D23*
X72390000Y-109220000D03*
X69850000Y-120200000D03*
D24*
X69850000Y-114300000D03*
D23*
X66040000Y-111760000D03*
X64850000Y-118000000D03*
D11*
X64770000Y-114300000D03*
D21*
X64350000Y-114300000D03*
D25*
X62400000Y-111720000D03*
D26*
X61500000Y-118000000D03*
D25*
X76000000Y-109180000D03*
D26*
X73400000Y-120200000D03*
%TD*%
D14*
%TO.C,D7*%
X198120000Y-83780000D03*
X198120000Y-81280000D03*
%TD*%
%TO.C,D29*%
X134620000Y-121880000D03*
X134620000Y-119380000D03*
%TD*%
D21*
%TO.C,SW32*%
X215050000Y-114300000D03*
D11*
X214630000Y-114300000D03*
D22*
X214550000Y-108750000D03*
D23*
X212090000Y-109220000D03*
X209550000Y-120200000D03*
D24*
X209550000Y-114300000D03*
D23*
X205740000Y-111760000D03*
X204550000Y-118000000D03*
D11*
X204470000Y-114300000D03*
D21*
X204050000Y-114300000D03*
D25*
X202100000Y-111720000D03*
D26*
X201200000Y-118000000D03*
D25*
X215700000Y-109180000D03*
D26*
X213100000Y-120200000D03*
%TD*%
D14*
%TO.C,D31*%
X198120000Y-121880000D03*
X198120000Y-119380000D03*
%TD*%
D21*
%TO.C,SW19*%
X196000000Y-95250000D03*
D11*
X195580000Y-95250000D03*
D22*
X195500000Y-89700000D03*
D23*
X193040000Y-90170000D03*
X190500000Y-101150000D03*
D24*
X190500000Y-95250000D03*
D23*
X186690000Y-92710000D03*
X185500000Y-98950000D03*
D11*
X185420000Y-95250000D03*
D21*
X185000000Y-95250000D03*
D25*
X183050000Y-92670000D03*
D26*
X182150000Y-98950000D03*
D25*
X196650000Y-90130000D03*
D26*
X194050000Y-101150000D03*
%TD*%
D14*
%TO.C,D20*%
X217170000Y-102830000D03*
X217170000Y-100330000D03*
%TD*%
%TO.C,D46*%
X255270000Y-140930000D03*
X255270000Y-138430000D03*
%TD*%
%TO.C,D2*%
X77470000Y-83780000D03*
X77470000Y-81280000D03*
%TD*%
%TO.C,D51*%
X217170000Y-165060000D03*
X217170000Y-162560000D03*
%TD*%
D21*
%TO.C,SW15*%
X94400000Y-95250000D03*
D11*
X93980000Y-95250000D03*
D22*
X93900000Y-89700000D03*
D23*
X91440000Y-90170000D03*
X88900000Y-101150000D03*
D24*
X88900000Y-95250000D03*
D23*
X85090000Y-92710000D03*
X83900000Y-98950000D03*
D11*
X83820000Y-95250000D03*
D21*
X83400000Y-95250000D03*
D25*
X81450000Y-92670000D03*
D26*
X80550000Y-98950000D03*
D25*
X95050000Y-90130000D03*
D26*
X92450000Y-101150000D03*
%TD*%
D14*
%TO.C,D48*%
X293370000Y-140930000D03*
X293370000Y-138430000D03*
%TD*%
D21*
%TO.C,SW21*%
X234100000Y-95250000D03*
D11*
X233680000Y-95250000D03*
D22*
X233600000Y-89700000D03*
D23*
X231140000Y-90170000D03*
X228600000Y-101150000D03*
D24*
X228600000Y-95250000D03*
D23*
X224790000Y-92710000D03*
X223600000Y-98950000D03*
D11*
X223520000Y-95250000D03*
D21*
X223100000Y-95250000D03*
D25*
X221150000Y-92670000D03*
D26*
X220250000Y-98950000D03*
D25*
X234750000Y-90130000D03*
D26*
X232150000Y-101150000D03*
%TD*%
D14*
%TO.C,D44*%
X217170000Y-140930000D03*
X217170000Y-138430000D03*
%TD*%
D21*
%TO.C,SW31*%
X196000000Y-114300000D03*
D11*
X195580000Y-114300000D03*
D22*
X195500000Y-108750000D03*
D23*
X193040000Y-109220000D03*
X190500000Y-120200000D03*
D24*
X190500000Y-114300000D03*
D23*
X186690000Y-111760000D03*
X185500000Y-118000000D03*
D11*
X185420000Y-114300000D03*
D21*
X185000000Y-114300000D03*
D25*
X183050000Y-111720000D03*
D26*
X182150000Y-118000000D03*
D25*
X196650000Y-109180000D03*
D26*
X194050000Y-120200000D03*
%TD*%
D21*
%TO.C,SW8*%
X215050000Y-76200000D03*
D11*
X214630000Y-76200000D03*
D22*
X214550000Y-70650000D03*
D23*
X212090000Y-71120000D03*
X209550000Y-82100000D03*
D24*
X209550000Y-76200000D03*
D23*
X205740000Y-73660000D03*
X204550000Y-79900000D03*
D11*
X204470000Y-76200000D03*
D21*
X204050000Y-76200000D03*
D25*
X202100000Y-73620000D03*
D26*
X201200000Y-79900000D03*
D25*
X215700000Y-71080000D03*
D26*
X213100000Y-82100000D03*
%TD*%
D14*
%TO.C,D16*%
X115570000Y-102830000D03*
X115570000Y-100330000D03*
%TD*%
%TO.C,D26*%
X77470000Y-121880000D03*
X77470000Y-119380000D03*
%TD*%
%TO.C,D25*%
X58420000Y-121880000D03*
X58420000Y-119380000D03*
%TD*%
D21*
%TO.C,SW49*%
X113450000Y-157480000D03*
D11*
X113030000Y-157480000D03*
D22*
X112950000Y-151930000D03*
D23*
X110490000Y-152400000D03*
X107950000Y-163380000D03*
D24*
X107950000Y-157480000D03*
D23*
X104140000Y-154940000D03*
X102950000Y-161180000D03*
D11*
X102870000Y-157480000D03*
D21*
X102450000Y-157480000D03*
D25*
X100500000Y-154900000D03*
D26*
X99600000Y-161180000D03*
D25*
X114100000Y-152360000D03*
D26*
X111500000Y-163380000D03*
%TD*%
D21*
%TO.C,SW40*%
X113450000Y-133350000D03*
D11*
X113030000Y-133350000D03*
D22*
X112950000Y-127800000D03*
D23*
X110490000Y-128270000D03*
X107950000Y-139250000D03*
D24*
X107950000Y-133350000D03*
D23*
X104140000Y-130810000D03*
X102950000Y-137050000D03*
D11*
X102870000Y-133350000D03*
D21*
X102450000Y-133350000D03*
D25*
X100500000Y-130770000D03*
D26*
X99600000Y-137050000D03*
D25*
X114100000Y-128230000D03*
D26*
X111500000Y-139250000D03*
%TD*%
D14*
%TO.C,D43*%
X198120000Y-140930000D03*
X198120000Y-138430000D03*
%TD*%
%TO.C,D22*%
X255270000Y-102830000D03*
X255270000Y-100330000D03*
%TD*%
D21*
%TO.C,SW10*%
X253150000Y-76200000D03*
D11*
X252730000Y-76200000D03*
D22*
X252650000Y-70650000D03*
D23*
X250190000Y-71120000D03*
X247650000Y-82100000D03*
D24*
X247650000Y-76200000D03*
D23*
X243840000Y-73660000D03*
X242650000Y-79900000D03*
D11*
X242570000Y-76200000D03*
D21*
X242150000Y-76200000D03*
D25*
X240200000Y-73620000D03*
D26*
X239300000Y-79900000D03*
D25*
X253800000Y-71080000D03*
D26*
X251200000Y-82100000D03*
%TD*%
D21*
%TO.C,SW48*%
X291250000Y-133350000D03*
D11*
X290830000Y-133350000D03*
D22*
X290750000Y-127800000D03*
D23*
X288290000Y-128270000D03*
X285750000Y-139250000D03*
D24*
X285750000Y-133350000D03*
D23*
X281940000Y-130810000D03*
X280750000Y-137050000D03*
D11*
X280670000Y-133350000D03*
D21*
X280250000Y-133350000D03*
D25*
X278300000Y-130770000D03*
D26*
X277400000Y-137050000D03*
D25*
X291900000Y-128230000D03*
D26*
X289300000Y-139250000D03*
%TD*%
D32*
%TO.C,Q1*%
X164780000Y-90799500D03*
X162880000Y-90799500D03*
X163830000Y-88524500D03*
%TD*%
D21*
%TO.C,SW44*%
X215050000Y-133350000D03*
D11*
X214630000Y-133350000D03*
D22*
X214550000Y-127800000D03*
D23*
X212090000Y-128270000D03*
X209550000Y-139250000D03*
D24*
X209550000Y-133350000D03*
D23*
X205740000Y-130810000D03*
X204550000Y-137050000D03*
D11*
X204470000Y-133350000D03*
D21*
X204050000Y-133350000D03*
D25*
X202100000Y-130770000D03*
D26*
X201200000Y-137050000D03*
D25*
X215700000Y-128230000D03*
D26*
X213100000Y-139250000D03*
%TD*%
D21*
%TO.C,SW38*%
X75350000Y-133350000D03*
D11*
X74930000Y-133350000D03*
D22*
X74850000Y-127800000D03*
D23*
X72390000Y-128270000D03*
X69850000Y-139250000D03*
D24*
X69850000Y-133350000D03*
D23*
X66040000Y-130810000D03*
X64850000Y-137050000D03*
D11*
X64770000Y-133350000D03*
D21*
X64350000Y-133350000D03*
D25*
X62400000Y-130770000D03*
D26*
X61500000Y-137050000D03*
D25*
X76000000Y-128230000D03*
D26*
X73400000Y-139250000D03*
%TD*%
D21*
%TO.C,SW2*%
X75350000Y-76200000D03*
D11*
X74930000Y-76200000D03*
D22*
X74850000Y-70650000D03*
D23*
X72390000Y-71120000D03*
X69850000Y-82100000D03*
D24*
X69850000Y-76200000D03*
D23*
X66040000Y-73660000D03*
X64850000Y-79900000D03*
D11*
X64770000Y-76200000D03*
D21*
X64350000Y-76200000D03*
D25*
X62400000Y-73620000D03*
D26*
X61500000Y-79900000D03*
D25*
X76000000Y-71080000D03*
D26*
X73400000Y-82100000D03*
%TD*%
D21*
%TO.C,SW51*%
X215050000Y-157480000D03*
D11*
X214630000Y-157480000D03*
D22*
X214550000Y-151930000D03*
D23*
X212090000Y-152400000D03*
X209550000Y-163380000D03*
D24*
X209550000Y-157480000D03*
D23*
X205740000Y-154940000D03*
X204550000Y-161180000D03*
D11*
X204470000Y-157480000D03*
D21*
X204050000Y-157480000D03*
D25*
X202100000Y-154900000D03*
D26*
X201200000Y-161180000D03*
D25*
X215700000Y-152360000D03*
D26*
X213100000Y-163380000D03*
%TD*%
D21*
%TO.C,SW47*%
X272200000Y-133350000D03*
D11*
X271780000Y-133350000D03*
D22*
X271700000Y-127800000D03*
D23*
X269240000Y-128270000D03*
X266700000Y-139250000D03*
D24*
X266700000Y-133350000D03*
D23*
X262890000Y-130810000D03*
X261700000Y-137050000D03*
D11*
X261620000Y-133350000D03*
D21*
X261200000Y-133350000D03*
D25*
X259250000Y-130770000D03*
D26*
X258350000Y-137050000D03*
D25*
X272850000Y-128230000D03*
D26*
X270250000Y-139250000D03*
%TD*%
D21*
%TO.C,SW46*%
X253150000Y-133350000D03*
D11*
X252730000Y-133350000D03*
D22*
X252650000Y-127800000D03*
D23*
X250190000Y-128270000D03*
X247650000Y-139250000D03*
D24*
X247650000Y-133350000D03*
D23*
X243840000Y-130810000D03*
X242650000Y-137050000D03*
D11*
X242570000Y-133350000D03*
D21*
X242150000Y-133350000D03*
D25*
X240200000Y-130770000D03*
D26*
X239300000Y-137050000D03*
D25*
X253800000Y-128230000D03*
D26*
X251200000Y-139250000D03*
%TD*%
D21*
%TO.C,SW35*%
X272200000Y-114300000D03*
D11*
X271780000Y-114300000D03*
D22*
X271700000Y-108750000D03*
D23*
X269240000Y-109220000D03*
X266700000Y-120200000D03*
D24*
X266700000Y-114300000D03*
D23*
X262890000Y-111760000D03*
X261700000Y-118000000D03*
D11*
X261620000Y-114300000D03*
D21*
X261200000Y-114300000D03*
D25*
X259250000Y-111720000D03*
D26*
X258350000Y-118000000D03*
D25*
X272850000Y-109180000D03*
D26*
X270250000Y-120200000D03*
%TD*%
D14*
%TO.C,D14*%
X77470000Y-102830000D03*
X77470000Y-100330000D03*
%TD*%
%TO.C,D8*%
X217170000Y-83780000D03*
X217170000Y-81280000D03*
%TD*%
%TO.C,D36*%
X293370000Y-121880000D03*
X293370000Y-119380000D03*
%TD*%
D21*
%TO.C,SW12*%
X291250000Y-76200000D03*
D11*
X290830000Y-76200000D03*
D22*
X290750000Y-70650000D03*
D23*
X288290000Y-71120000D03*
X285750000Y-82100000D03*
D24*
X285750000Y-76200000D03*
D23*
X281940000Y-73660000D03*
X280750000Y-79900000D03*
D11*
X280670000Y-76200000D03*
D21*
X280250000Y-76200000D03*
D25*
X278300000Y-73620000D03*
D26*
X277400000Y-79900000D03*
D25*
X291900000Y-71080000D03*
D26*
X289300000Y-82100000D03*
%TD*%
D31*
%TO.C,C2*%
X165862000Y-93498500D03*
X165862000Y-95223500D03*
%TD*%
D21*
%TO.C,SW29*%
X132500000Y-114300000D03*
D11*
X132080000Y-114300000D03*
D22*
X132000000Y-108750000D03*
D23*
X129540000Y-109220000D03*
X127000000Y-120200000D03*
D24*
X127000000Y-114300000D03*
D23*
X123190000Y-111760000D03*
X122000000Y-118000000D03*
D11*
X121920000Y-114300000D03*
D21*
X121500000Y-114300000D03*
D25*
X119550000Y-111720000D03*
D26*
X118650000Y-118000000D03*
D25*
X133150000Y-109180000D03*
D26*
X130550000Y-120200000D03*
%TD*%
D21*
%TO.C,SW28*%
X113450000Y-114300000D03*
D11*
X113030000Y-114300000D03*
D22*
X112950000Y-108750000D03*
D23*
X110490000Y-109220000D03*
X107950000Y-120200000D03*
D24*
X107950000Y-114300000D03*
D23*
X104140000Y-111760000D03*
X102950000Y-118000000D03*
D11*
X102870000Y-114300000D03*
D21*
X102450000Y-114300000D03*
D25*
X100500000Y-111720000D03*
D26*
X99600000Y-118000000D03*
D25*
X114100000Y-109180000D03*
D26*
X111500000Y-120200000D03*
%TD*%
D14*
%TO.C,D27*%
X96520000Y-121880000D03*
X96520000Y-119380000D03*
%TD*%
%TO.C,D17*%
X134620000Y-102830000D03*
X134620000Y-100330000D03*
%TD*%
M02*
