%TF.GenerationSoftware,KiCad,Pcbnew,9.0.3*%
%TF.CreationDate,2025-10-28T00:46:09+09:00*%
%TF.ProjectId,vespa,76657370-612e-46b6-9963-61645f706362,rev?*%
%TF.SameCoordinates,Original*%
%TF.FileFunction,Legend,Top*%
%TF.FilePolarity,Positive*%
%FSLAX46Y46*%
G04 Gerber Fmt 4.6, Leading zero omitted, Abs format (unit mm)*
G04 Created by KiCad (PCBNEW 9.0.3) date 2025-10-28 00:46:09*
%MOMM*%
%LPD*%
G01*
G04 APERTURE LIST*
G04 Aperture macros list*
%AMRoundRect*
0 Rectangle with rounded corners*
0 $1 Rounding radius*
0 $2 $3 $4 $5 $6 $7 $8 $9 X,Y pos of 4 corners*
0 Add a 4 corners polygon primitive as box body*
4,1,4,$2,$3,$4,$5,$6,$7,$8,$9,$2,$3,0*
0 Add four circle primitives for the rounded corners*
1,1,$1+$1,$2,$3*
1,1,$1+$1,$4,$5*
1,1,$1+$1,$6,$7*
1,1,$1+$1,$8,$9*
0 Add four rect primitives between the rounded corners*
20,1,$1+$1,$2,$3,$4,$5,0*
20,1,$1+$1,$4,$5,$6,$7,0*
20,1,$1+$1,$6,$7,$8,$9,0*
20,1,$1+$1,$8,$9,$2,$3,0*%
G04 Aperture macros list end*
%ADD10C,0.153000*%
%ADD11C,0.120000*%
%ADD12C,2.000000*%
%ADD13R,2.000000X2.000000*%
%ADD14C,1.400000*%
%ADD15C,4.500000*%
%ADD16C,1.500000*%
%ADD17RoundRect,0.360000X-0.840000X3.340000X-0.840000X-3.340000X0.840000X-3.340000X0.840000X3.340000X0*%
%ADD18RoundRect,0.255000X-0.595000X0.895000X-0.595000X-0.895000X0.595000X-0.895000X0.595000X0.895000X0*%
%ADD19RoundRect,0.255000X-0.595000X0.770000X-0.595000X-0.770000X0.595000X-0.770000X0.595000X0.770000X0*%
%ADD20C,1.700000*%
%ADD21C,1.000000*%
%ADD22C,3.000000*%
%ADD23C,4.800000*%
G04 APERTURE END LIST*
D10*
X168443948Y-116085476D02*
X168443948Y-115609286D01*
X168729663Y-116180714D02*
X167729663Y-115847381D01*
X167729663Y-115847381D02*
X168729663Y-115514048D01*
X168443948Y-115228333D02*
X168443948Y-114752143D01*
X168729663Y-115323571D02*
X167729663Y-114990238D01*
X167729663Y-114990238D02*
X168729663Y-114656905D01*
X168205853Y-113228333D02*
X168253472Y-113085476D01*
X168253472Y-113085476D02*
X168301091Y-113037857D01*
X168301091Y-113037857D02*
X168396329Y-112990238D01*
X168396329Y-112990238D02*
X168539186Y-112990238D01*
X168539186Y-112990238D02*
X168634424Y-113037857D01*
X168634424Y-113037857D02*
X168682044Y-113085476D01*
X168682044Y-113085476D02*
X168729663Y-113180714D01*
X168729663Y-113180714D02*
X168729663Y-113561666D01*
X168729663Y-113561666D02*
X167729663Y-113561666D01*
X167729663Y-113561666D02*
X167729663Y-113228333D01*
X167729663Y-113228333D02*
X167777282Y-113133095D01*
X167777282Y-113133095D02*
X167824901Y-113085476D01*
X167824901Y-113085476D02*
X167920139Y-113037857D01*
X167920139Y-113037857D02*
X168015377Y-113037857D01*
X168015377Y-113037857D02*
X168110615Y-113085476D01*
X168110615Y-113085476D02*
X168158234Y-113133095D01*
X168158234Y-113133095D02*
X168205853Y-113228333D01*
X168205853Y-113228333D02*
X168205853Y-113561666D01*
X168729663Y-112133095D02*
X168205853Y-112133095D01*
X168205853Y-112133095D02*
X168110615Y-112180714D01*
X168110615Y-112180714D02*
X168062996Y-112275952D01*
X168062996Y-112275952D02*
X168062996Y-112466428D01*
X168062996Y-112466428D02*
X168110615Y-112561666D01*
X168682044Y-112133095D02*
X168729663Y-112228333D01*
X168729663Y-112228333D02*
X168729663Y-112466428D01*
X168729663Y-112466428D02*
X168682044Y-112561666D01*
X168682044Y-112561666D02*
X168586805Y-112609285D01*
X168586805Y-112609285D02*
X168491567Y-112609285D01*
X168491567Y-112609285D02*
X168396329Y-112561666D01*
X168396329Y-112561666D02*
X168348710Y-112466428D01*
X168348710Y-112466428D02*
X168348710Y-112228333D01*
X168348710Y-112228333D02*
X168301091Y-112133095D01*
X168062996Y-111799761D02*
X168062996Y-111418809D01*
X167729663Y-111656904D02*
X168586805Y-111656904D01*
X168586805Y-111656904D02*
X168682044Y-111609285D01*
X168682044Y-111609285D02*
X168729663Y-111514047D01*
X168729663Y-111514047D02*
X168729663Y-111418809D01*
X168062996Y-111228332D02*
X168062996Y-110847380D01*
X167729663Y-111085475D02*
X168586805Y-111085475D01*
X168586805Y-111085475D02*
X168682044Y-111037856D01*
X168682044Y-111037856D02*
X168729663Y-110942618D01*
X168729663Y-110942618D02*
X168729663Y-110847380D01*
X168682044Y-110133094D02*
X168729663Y-110228332D01*
X168729663Y-110228332D02*
X168729663Y-110418808D01*
X168729663Y-110418808D02*
X168682044Y-110514046D01*
X168682044Y-110514046D02*
X168586805Y-110561665D01*
X168586805Y-110561665D02*
X168205853Y-110561665D01*
X168205853Y-110561665D02*
X168110615Y-110514046D01*
X168110615Y-110514046D02*
X168062996Y-110418808D01*
X168062996Y-110418808D02*
X168062996Y-110228332D01*
X168062996Y-110228332D02*
X168110615Y-110133094D01*
X168110615Y-110133094D02*
X168205853Y-110085475D01*
X168205853Y-110085475D02*
X168301091Y-110085475D01*
X168301091Y-110085475D02*
X168396329Y-110561665D01*
X168729663Y-109656903D02*
X168062996Y-109656903D01*
X168253472Y-109656903D02*
X168158234Y-109609284D01*
X168158234Y-109609284D02*
X168110615Y-109561665D01*
X168110615Y-109561665D02*
X168062996Y-109466427D01*
X168062996Y-109466427D02*
X168062996Y-109371189D01*
X168062996Y-109133093D02*
X168729663Y-108894998D01*
X168062996Y-108656903D02*
X168729663Y-108894998D01*
X168729663Y-108894998D02*
X168967758Y-108990236D01*
X168967758Y-108990236D02*
X169015377Y-109037855D01*
X169015377Y-109037855D02*
X169062996Y-109133093D01*
D11*
%TO.C,AA Battery*%
X175875000Y-124562500D02*
G75*
G02*
X173875000Y-122562500I0J2000000D01*
G01*
X173875000Y-106762500D02*
G75*
G02*
X175875000Y-104762500I2000000J0D01*
G01*
X162675000Y-122562500D02*
G75*
G02*
X160675000Y-124562500I-2000000J0D01*
G01*
X160675000Y-104762500D02*
G75*
G02*
X162675000Y-106762500I0J-2000000D01*
G01*
X176840000Y-143282500D02*
X159710000Y-143282500D01*
X176840000Y-86042500D02*
X176840000Y-143282500D01*
X175875000Y-142562500D02*
X160675000Y-142562500D01*
X175875000Y-124562500D02*
X175875000Y-142562500D01*
X175875000Y-86762500D02*
X175875000Y-104762500D01*
X175875000Y-86762500D02*
X160675000Y-86762500D01*
X173875000Y-106762500D02*
X173875000Y-122562500D01*
X172275000Y-138972500D02*
X164275000Y-138972500D01*
X170275000Y-136972500D02*
X166275000Y-136972500D01*
X169275000Y-135972500D02*
X167275000Y-135972500D01*
X165275000Y-137972500D02*
X171275000Y-137972500D01*
X162675000Y-122562500D02*
X162675000Y-106762500D01*
X160675000Y-124562500D02*
X160675000Y-142562500D01*
X160675000Y-86762500D02*
X160675000Y-104762500D01*
X159710000Y-143282500D02*
X159710000Y-86042500D01*
X159710000Y-86042500D02*
X176840000Y-86042500D01*
%TD*%
D12*
%TO.C,SW36*%
X290830000Y-114300000D03*
X280670000Y-114300000D03*
%TD*%
%TO.C,SW42*%
X151130000Y-133350000D03*
X140970000Y-133350000D03*
%TD*%
%TO.C,SW45*%
X233680000Y-133350000D03*
X223520000Y-133350000D03*
%TD*%
%TO.C,SW34*%
X252730000Y-114300000D03*
X242570000Y-114300000D03*
%TD*%
%TO.C,SW33*%
X233680000Y-114300000D03*
X223520000Y-114300000D03*
%TD*%
%TO.C,SW30*%
X151130000Y-114300000D03*
X140970000Y-114300000D03*
%TD*%
%TO.C,SW23*%
X271780000Y-95250000D03*
X261620000Y-95250000D03*
%TD*%
%TO.C,SW6*%
X151130000Y-76200000D03*
X140970000Y-76200000D03*
%TD*%
%TO.C,SW18*%
X151130000Y-95250000D03*
X140970000Y-95250000D03*
%TD*%
%TO.C,SW27*%
X93980000Y-114300000D03*
X83820000Y-114300000D03*
%TD*%
%TO.C,SW20*%
X214630000Y-95250000D03*
X204470000Y-95250000D03*
%TD*%
%TO.C,SW22*%
X252730000Y-95250000D03*
X242570000Y-95250000D03*
%TD*%
%TO.C,SW14*%
X74930000Y-95250000D03*
X64770000Y-95250000D03*
%TD*%
%TO.C,SW41*%
X132080000Y-133350000D03*
X121920000Y-133350000D03*
%TD*%
%TO.C,SW43*%
X195580000Y-133350000D03*
X185420000Y-133350000D03*
%TD*%
%TO.C,SW3*%
X93980000Y-76200000D03*
X83820000Y-76200000D03*
%TD*%
%TO.C,SW7*%
X195580000Y-76200000D03*
X185420000Y-76200000D03*
%TD*%
%TO.C,SW50*%
X132080000Y-157480000D03*
X121920000Y-157480000D03*
%TD*%
%TO.C,SW52*%
X233680000Y-157480000D03*
X223520000Y-157480000D03*
%TD*%
%TO.C,SW24*%
X290830000Y-95250000D03*
X280670000Y-95250000D03*
%TD*%
%TO.C,SW17*%
X132080000Y-95250000D03*
X121920000Y-95250000D03*
%TD*%
%TO.C,SW37*%
X55880000Y-133350000D03*
X45720000Y-133350000D03*
%TD*%
%TO.C,SW5*%
X132080000Y-76200000D03*
X121920000Y-76200000D03*
%TD*%
%TO.C,SW4*%
X113030000Y-76200000D03*
X102870000Y-76200000D03*
%TD*%
%TO.C,SW11*%
X271780000Y-76200000D03*
X261620000Y-76200000D03*
%TD*%
%TO.C,SW13*%
X55880000Y-95250000D03*
X45720000Y-95250000D03*
%TD*%
%TO.C,SW25*%
X55880000Y-114300000D03*
X45720000Y-114300000D03*
%TD*%
%TO.C,SW9*%
X233680000Y-76200000D03*
X223520000Y-76200000D03*
%TD*%
%TO.C,SW1*%
X55880000Y-76200000D03*
X45720000Y-76200000D03*
%TD*%
%TO.C,SW39*%
X93980000Y-133350000D03*
X83820000Y-133350000D03*
%TD*%
%TO.C,SW16*%
X113030000Y-95250000D03*
X102870000Y-95250000D03*
%TD*%
%TO.C,SW26*%
X74930000Y-114300000D03*
X64770000Y-114300000D03*
%TD*%
%TO.C,SW32*%
X214630000Y-114300000D03*
X204470000Y-114300000D03*
%TD*%
%TO.C,SW19*%
X195580000Y-95250000D03*
X185420000Y-95250000D03*
%TD*%
%TO.C,SW15*%
X93980000Y-95250000D03*
X83820000Y-95250000D03*
%TD*%
%TO.C,SW21*%
X233680000Y-95250000D03*
X223520000Y-95250000D03*
%TD*%
%TO.C,SW31*%
X195580000Y-114300000D03*
X185420000Y-114300000D03*
%TD*%
%TO.C,SW8*%
X214630000Y-76200000D03*
X204470000Y-76200000D03*
%TD*%
%TO.C,SW49*%
X113030000Y-157480000D03*
X102870000Y-157480000D03*
%TD*%
%TO.C,SW40*%
X113030000Y-133350000D03*
X102870000Y-133350000D03*
%TD*%
%TO.C,SW10*%
X252730000Y-76200000D03*
X242570000Y-76200000D03*
%TD*%
%TO.C,SW48*%
X290830000Y-133350000D03*
X280670000Y-133350000D03*
%TD*%
%TO.C,SW44*%
X214630000Y-133350000D03*
X204470000Y-133350000D03*
%TD*%
%TO.C,SW38*%
X74930000Y-133350000D03*
X64770000Y-133350000D03*
%TD*%
%TO.C,SW2*%
X74930000Y-76200000D03*
X64770000Y-76200000D03*
%TD*%
%TO.C,SW51*%
X214630000Y-157480000D03*
X204470000Y-157480000D03*
%TD*%
%TO.C,SW47*%
X271780000Y-133350000D03*
X261620000Y-133350000D03*
%TD*%
%TO.C,SW46*%
X252730000Y-133350000D03*
X242570000Y-133350000D03*
%TD*%
%TO.C,SW35*%
X271780000Y-114300000D03*
X261620000Y-114300000D03*
%TD*%
%TO.C,SW12*%
X290830000Y-76200000D03*
X280670000Y-76200000D03*
%TD*%
%TO.C,SW29*%
X132080000Y-114300000D03*
X121920000Y-114300000D03*
%TD*%
%TO.C,SW28*%
X113030000Y-114300000D03*
X102870000Y-114300000D03*
%TD*%
%LPC*%
%TO.C,AA Battery*%
X168275000Y-140652500D03*
D13*
X168275000Y-88662500D03*
%TD*%
D14*
%TO.C,SW54*%
X170775000Y-143688000D03*
X168275000Y-146888000D03*
X165775000Y-143688000D03*
%TD*%
D15*
%TO.C,Ref\u002A\u002A*%
X213995000Y-145415000D03*
%TD*%
%TO.C,Ref\u002A\u002A*%
X122555000Y-145415000D03*
%TD*%
%TO.C,Ref\u002A\u002A*%
X156845000Y-88900000D03*
%TD*%
%TO.C,Ref\u002A\u002A*%
X179705000Y-88900000D03*
%TD*%
D16*
%TO.C,SW53*%
X168275000Y-71823000D03*
D17*
X175125000Y-76323000D03*
X161425000Y-76323000D03*
D18*
X170775000Y-68203000D03*
X165775000Y-68203000D03*
X168275000Y-68203000D03*
D19*
X165775000Y-84578000D03*
X170775000Y-84578000D03*
%TD*%
D20*
%TO.C,SW36*%
X291250000Y-114300000D03*
D12*
X290830000Y-114300000D03*
D21*
X290750000Y-108750000D03*
D22*
X288290000Y-109220000D03*
X285750000Y-120200000D03*
D23*
X285750000Y-114300000D03*
D22*
X281940000Y-111760000D03*
X280750000Y-118000000D03*
D12*
X280670000Y-114300000D03*
D20*
X280250000Y-114300000D03*
%TD*%
%TO.C,SW42*%
X151550000Y-133350000D03*
D12*
X151130000Y-133350000D03*
D21*
X151050000Y-127800000D03*
D22*
X148590000Y-128270000D03*
X146050000Y-139250000D03*
D23*
X146050000Y-133350000D03*
D22*
X142240000Y-130810000D03*
X141050000Y-137050000D03*
D12*
X140970000Y-133350000D03*
D20*
X140550000Y-133350000D03*
%TD*%
%TO.C,SW45*%
X234100000Y-133350000D03*
D12*
X233680000Y-133350000D03*
D21*
X233600000Y-127800000D03*
D22*
X231140000Y-128270000D03*
X228600000Y-139250000D03*
D23*
X228600000Y-133350000D03*
D22*
X224790000Y-130810000D03*
X223600000Y-137050000D03*
D12*
X223520000Y-133350000D03*
D20*
X223100000Y-133350000D03*
%TD*%
%TO.C,SW34*%
X253150000Y-114300000D03*
D12*
X252730000Y-114300000D03*
D21*
X252650000Y-108750000D03*
D22*
X250190000Y-109220000D03*
X247650000Y-120200000D03*
D23*
X247650000Y-114300000D03*
D22*
X243840000Y-111760000D03*
X242650000Y-118000000D03*
D12*
X242570000Y-114300000D03*
D20*
X242150000Y-114300000D03*
%TD*%
%TO.C,SW33*%
X234100000Y-114300000D03*
D12*
X233680000Y-114300000D03*
D21*
X233600000Y-108750000D03*
D22*
X231140000Y-109220000D03*
X228600000Y-120200000D03*
D23*
X228600000Y-114300000D03*
D22*
X224790000Y-111760000D03*
X223600000Y-118000000D03*
D12*
X223520000Y-114300000D03*
D20*
X223100000Y-114300000D03*
%TD*%
%TO.C,SW30*%
X151550000Y-114300000D03*
D12*
X151130000Y-114300000D03*
D21*
X151050000Y-108750000D03*
D22*
X148590000Y-109220000D03*
X146050000Y-120200000D03*
D23*
X146050000Y-114300000D03*
D22*
X142240000Y-111760000D03*
X141050000Y-118000000D03*
D12*
X140970000Y-114300000D03*
D20*
X140550000Y-114300000D03*
%TD*%
%TO.C,SW23*%
X272200000Y-95250000D03*
D12*
X271780000Y-95250000D03*
D21*
X271700000Y-89700000D03*
D22*
X269240000Y-90170000D03*
X266700000Y-101150000D03*
D23*
X266700000Y-95250000D03*
D22*
X262890000Y-92710000D03*
X261700000Y-98950000D03*
D12*
X261620000Y-95250000D03*
D20*
X261200000Y-95250000D03*
%TD*%
%TO.C,SW6*%
X151550000Y-76200000D03*
D12*
X151130000Y-76200000D03*
D21*
X151050000Y-70650000D03*
D22*
X148590000Y-71120000D03*
X146050000Y-82100000D03*
D23*
X146050000Y-76200000D03*
D22*
X142240000Y-73660000D03*
X141050000Y-79900000D03*
D12*
X140970000Y-76200000D03*
D20*
X140550000Y-76200000D03*
%TD*%
%TO.C,SW18*%
X151550000Y-95250000D03*
D12*
X151130000Y-95250000D03*
D21*
X151050000Y-89700000D03*
D22*
X148590000Y-90170000D03*
X146050000Y-101150000D03*
D23*
X146050000Y-95250000D03*
D22*
X142240000Y-92710000D03*
X141050000Y-98950000D03*
D12*
X140970000Y-95250000D03*
D20*
X140550000Y-95250000D03*
%TD*%
%TO.C,SW27*%
X94400000Y-114300000D03*
D12*
X93980000Y-114300000D03*
D21*
X93900000Y-108750000D03*
D22*
X91440000Y-109220000D03*
X88900000Y-120200000D03*
D23*
X88900000Y-114300000D03*
D22*
X85090000Y-111760000D03*
X83900000Y-118000000D03*
D12*
X83820000Y-114300000D03*
D20*
X83400000Y-114300000D03*
%TD*%
%TO.C,SW20*%
X215050000Y-95250000D03*
D12*
X214630000Y-95250000D03*
D21*
X214550000Y-89700000D03*
D22*
X212090000Y-90170000D03*
X209550000Y-101150000D03*
D23*
X209550000Y-95250000D03*
D22*
X205740000Y-92710000D03*
X204550000Y-98950000D03*
D12*
X204470000Y-95250000D03*
D20*
X204050000Y-95250000D03*
%TD*%
%TO.C,SW22*%
X253150000Y-95250000D03*
D12*
X252730000Y-95250000D03*
D21*
X252650000Y-89700000D03*
D22*
X250190000Y-90170000D03*
X247650000Y-101150000D03*
D23*
X247650000Y-95250000D03*
D22*
X243840000Y-92710000D03*
X242650000Y-98950000D03*
D12*
X242570000Y-95250000D03*
D20*
X242150000Y-95250000D03*
%TD*%
%TO.C,SW14*%
X75350000Y-95250000D03*
D12*
X74930000Y-95250000D03*
D21*
X74850000Y-89700000D03*
D22*
X72390000Y-90170000D03*
X69850000Y-101150000D03*
D23*
X69850000Y-95250000D03*
D22*
X66040000Y-92710000D03*
X64850000Y-98950000D03*
D12*
X64770000Y-95250000D03*
D20*
X64350000Y-95250000D03*
%TD*%
%TO.C,SW41*%
X132500000Y-133350000D03*
D12*
X132080000Y-133350000D03*
D21*
X132000000Y-127800000D03*
D22*
X129540000Y-128270000D03*
X127000000Y-139250000D03*
D23*
X127000000Y-133350000D03*
D22*
X123190000Y-130810000D03*
X122000000Y-137050000D03*
D12*
X121920000Y-133350000D03*
D20*
X121500000Y-133350000D03*
%TD*%
%TO.C,SW43*%
X196000000Y-133350000D03*
D12*
X195580000Y-133350000D03*
D21*
X195500000Y-127800000D03*
D22*
X193040000Y-128270000D03*
X190500000Y-139250000D03*
D23*
X190500000Y-133350000D03*
D22*
X186690000Y-130810000D03*
X185500000Y-137050000D03*
D12*
X185420000Y-133350000D03*
D20*
X185000000Y-133350000D03*
%TD*%
%TO.C,SW3*%
X94400000Y-76200000D03*
D12*
X93980000Y-76200000D03*
D21*
X93900000Y-70650000D03*
D22*
X91440000Y-71120000D03*
X88900000Y-82100000D03*
D23*
X88900000Y-76200000D03*
D22*
X85090000Y-73660000D03*
X83900000Y-79900000D03*
D12*
X83820000Y-76200000D03*
D20*
X83400000Y-76200000D03*
%TD*%
%TO.C,SW7*%
X196000000Y-76200000D03*
D12*
X195580000Y-76200000D03*
D21*
X195500000Y-70650000D03*
D22*
X193040000Y-71120000D03*
X190500000Y-82100000D03*
D23*
X190500000Y-76200000D03*
D22*
X186690000Y-73660000D03*
X185500000Y-79900000D03*
D12*
X185420000Y-76200000D03*
D20*
X185000000Y-76200000D03*
%TD*%
%TO.C,SW50*%
X132500000Y-157480000D03*
D12*
X132080000Y-157480000D03*
D21*
X132000000Y-151930000D03*
D22*
X129540000Y-152400000D03*
X127000000Y-163380000D03*
D23*
X127000000Y-157480000D03*
D22*
X123190000Y-154940000D03*
X122000000Y-161180000D03*
D12*
X121920000Y-157480000D03*
D20*
X121500000Y-157480000D03*
%TD*%
%TO.C,SW52*%
X234100000Y-157480000D03*
D12*
X233680000Y-157480000D03*
D21*
X233600000Y-151930000D03*
D22*
X231140000Y-152400000D03*
X228600000Y-163380000D03*
D23*
X228600000Y-157480000D03*
D22*
X224790000Y-154940000D03*
X223600000Y-161180000D03*
D12*
X223520000Y-157480000D03*
D20*
X223100000Y-157480000D03*
%TD*%
%TO.C,SW24*%
X291250000Y-95250000D03*
D12*
X290830000Y-95250000D03*
D21*
X290750000Y-89700000D03*
D22*
X288290000Y-90170000D03*
X285750000Y-101150000D03*
D23*
X285750000Y-95250000D03*
D22*
X281940000Y-92710000D03*
X280750000Y-98950000D03*
D12*
X280670000Y-95250000D03*
D20*
X280250000Y-95250000D03*
%TD*%
%TO.C,SW17*%
X132500000Y-95250000D03*
D12*
X132080000Y-95250000D03*
D21*
X132000000Y-89700000D03*
D22*
X129540000Y-90170000D03*
X127000000Y-101150000D03*
D23*
X127000000Y-95250000D03*
D22*
X123190000Y-92710000D03*
X122000000Y-98950000D03*
D12*
X121920000Y-95250000D03*
D20*
X121500000Y-95250000D03*
%TD*%
%TO.C,SW37*%
X56300000Y-133350000D03*
D12*
X55880000Y-133350000D03*
D21*
X55800000Y-127800000D03*
D22*
X53340000Y-128270000D03*
X50800000Y-139250000D03*
D23*
X50800000Y-133350000D03*
D22*
X46990000Y-130810000D03*
X45800000Y-137050000D03*
D12*
X45720000Y-133350000D03*
D20*
X45300000Y-133350000D03*
%TD*%
%TO.C,SW5*%
X132500000Y-76200000D03*
D12*
X132080000Y-76200000D03*
D21*
X132000000Y-70650000D03*
D22*
X129540000Y-71120000D03*
X127000000Y-82100000D03*
D23*
X127000000Y-76200000D03*
D22*
X123190000Y-73660000D03*
X122000000Y-79900000D03*
D12*
X121920000Y-76200000D03*
D20*
X121500000Y-76200000D03*
%TD*%
%TO.C,SW4*%
X113450000Y-76200000D03*
D12*
X113030000Y-76200000D03*
D21*
X112950000Y-70650000D03*
D22*
X110490000Y-71120000D03*
X107950000Y-82100000D03*
D23*
X107950000Y-76200000D03*
D22*
X104140000Y-73660000D03*
X102950000Y-79900000D03*
D12*
X102870000Y-76200000D03*
D20*
X102450000Y-76200000D03*
%TD*%
%TO.C,SW11*%
X272200000Y-76200000D03*
D12*
X271780000Y-76200000D03*
D21*
X271700000Y-70650000D03*
D22*
X269240000Y-71120000D03*
X266700000Y-82100000D03*
D23*
X266700000Y-76200000D03*
D22*
X262890000Y-73660000D03*
X261700000Y-79900000D03*
D12*
X261620000Y-76200000D03*
D20*
X261200000Y-76200000D03*
%TD*%
%TO.C,SW13*%
X56300000Y-95250000D03*
D12*
X55880000Y-95250000D03*
D21*
X55800000Y-89700000D03*
D22*
X53340000Y-90170000D03*
X50800000Y-101150000D03*
D23*
X50800000Y-95250000D03*
D22*
X46990000Y-92710000D03*
X45800000Y-98950000D03*
D12*
X45720000Y-95250000D03*
D20*
X45300000Y-95250000D03*
%TD*%
%TO.C,SW25*%
X56300000Y-114300000D03*
D12*
X55880000Y-114300000D03*
D21*
X55800000Y-108750000D03*
D22*
X53340000Y-109220000D03*
X50800000Y-120200000D03*
D23*
X50800000Y-114300000D03*
D22*
X46990000Y-111760000D03*
X45800000Y-118000000D03*
D12*
X45720000Y-114300000D03*
D20*
X45300000Y-114300000D03*
%TD*%
%TO.C,SW9*%
X234100000Y-76200000D03*
D12*
X233680000Y-76200000D03*
D21*
X233600000Y-70650000D03*
D22*
X231140000Y-71120000D03*
X228600000Y-82100000D03*
D23*
X228600000Y-76200000D03*
D22*
X224790000Y-73660000D03*
X223600000Y-79900000D03*
D12*
X223520000Y-76200000D03*
D20*
X223100000Y-76200000D03*
%TD*%
%TO.C,SW1*%
X56300000Y-76200000D03*
D12*
X55880000Y-76200000D03*
D21*
X55800000Y-70650000D03*
D22*
X53340000Y-71120000D03*
X50800000Y-82100000D03*
D23*
X50800000Y-76200000D03*
D22*
X46990000Y-73660000D03*
X45800000Y-79900000D03*
D12*
X45720000Y-76200000D03*
D20*
X45300000Y-76200000D03*
%TD*%
%TO.C,SW39*%
X94400000Y-133350000D03*
D12*
X93980000Y-133350000D03*
D21*
X93900000Y-127800000D03*
D22*
X91440000Y-128270000D03*
X88900000Y-139250000D03*
D23*
X88900000Y-133350000D03*
D22*
X85090000Y-130810000D03*
X83900000Y-137050000D03*
D12*
X83820000Y-133350000D03*
D20*
X83400000Y-133350000D03*
%TD*%
%TO.C,SW16*%
X113450000Y-95250000D03*
D12*
X113030000Y-95250000D03*
D21*
X112950000Y-89700000D03*
D22*
X110490000Y-90170000D03*
X107950000Y-101150000D03*
D23*
X107950000Y-95250000D03*
D22*
X104140000Y-92710000D03*
X102950000Y-98950000D03*
D12*
X102870000Y-95250000D03*
D20*
X102450000Y-95250000D03*
%TD*%
%TO.C,SW26*%
X75350000Y-114300000D03*
D12*
X74930000Y-114300000D03*
D21*
X74850000Y-108750000D03*
D22*
X72390000Y-109220000D03*
X69850000Y-120200000D03*
D23*
X69850000Y-114300000D03*
D22*
X66040000Y-111760000D03*
X64850000Y-118000000D03*
D12*
X64770000Y-114300000D03*
D20*
X64350000Y-114300000D03*
%TD*%
%TO.C,SW32*%
X215050000Y-114300000D03*
D12*
X214630000Y-114300000D03*
D21*
X214550000Y-108750000D03*
D22*
X212090000Y-109220000D03*
X209550000Y-120200000D03*
D23*
X209550000Y-114300000D03*
D22*
X205740000Y-111760000D03*
X204550000Y-118000000D03*
D12*
X204470000Y-114300000D03*
D20*
X204050000Y-114300000D03*
%TD*%
%TO.C,SW19*%
X196000000Y-95250000D03*
D12*
X195580000Y-95250000D03*
D21*
X195500000Y-89700000D03*
D22*
X193040000Y-90170000D03*
X190500000Y-101150000D03*
D23*
X190500000Y-95250000D03*
D22*
X186690000Y-92710000D03*
X185500000Y-98950000D03*
D12*
X185420000Y-95250000D03*
D20*
X185000000Y-95250000D03*
%TD*%
%TO.C,SW15*%
X94400000Y-95250000D03*
D12*
X93980000Y-95250000D03*
D21*
X93900000Y-89700000D03*
D22*
X91440000Y-90170000D03*
X88900000Y-101150000D03*
D23*
X88900000Y-95250000D03*
D22*
X85090000Y-92710000D03*
X83900000Y-98950000D03*
D12*
X83820000Y-95250000D03*
D20*
X83400000Y-95250000D03*
%TD*%
%TO.C,SW21*%
X234100000Y-95250000D03*
D12*
X233680000Y-95250000D03*
D21*
X233600000Y-89700000D03*
D22*
X231140000Y-90170000D03*
X228600000Y-101150000D03*
D23*
X228600000Y-95250000D03*
D22*
X224790000Y-92710000D03*
X223600000Y-98950000D03*
D12*
X223520000Y-95250000D03*
D20*
X223100000Y-95250000D03*
%TD*%
%TO.C,SW31*%
X196000000Y-114300000D03*
D12*
X195580000Y-114300000D03*
D21*
X195500000Y-108750000D03*
D22*
X193040000Y-109220000D03*
X190500000Y-120200000D03*
D23*
X190500000Y-114300000D03*
D22*
X186690000Y-111760000D03*
X185500000Y-118000000D03*
D12*
X185420000Y-114300000D03*
D20*
X185000000Y-114300000D03*
%TD*%
%TO.C,SW8*%
X215050000Y-76200000D03*
D12*
X214630000Y-76200000D03*
D21*
X214550000Y-70650000D03*
D22*
X212090000Y-71120000D03*
X209550000Y-82100000D03*
D23*
X209550000Y-76200000D03*
D22*
X205740000Y-73660000D03*
X204550000Y-79900000D03*
D12*
X204470000Y-76200000D03*
D20*
X204050000Y-76200000D03*
%TD*%
%TO.C,SW49*%
X113450000Y-157480000D03*
D12*
X113030000Y-157480000D03*
D21*
X112950000Y-151930000D03*
D22*
X110490000Y-152400000D03*
X107950000Y-163380000D03*
D23*
X107950000Y-157480000D03*
D22*
X104140000Y-154940000D03*
X102950000Y-161180000D03*
D12*
X102870000Y-157480000D03*
D20*
X102450000Y-157480000D03*
%TD*%
%TO.C,SW40*%
X113450000Y-133350000D03*
D12*
X113030000Y-133350000D03*
D21*
X112950000Y-127800000D03*
D22*
X110490000Y-128270000D03*
X107950000Y-139250000D03*
D23*
X107950000Y-133350000D03*
D22*
X104140000Y-130810000D03*
X102950000Y-137050000D03*
D12*
X102870000Y-133350000D03*
D20*
X102450000Y-133350000D03*
%TD*%
%TO.C,SW10*%
X253150000Y-76200000D03*
D12*
X252730000Y-76200000D03*
D21*
X252650000Y-70650000D03*
D22*
X250190000Y-71120000D03*
X247650000Y-82100000D03*
D23*
X247650000Y-76200000D03*
D22*
X243840000Y-73660000D03*
X242650000Y-79900000D03*
D12*
X242570000Y-76200000D03*
D20*
X242150000Y-76200000D03*
%TD*%
%TO.C,SW48*%
X291250000Y-133350000D03*
D12*
X290830000Y-133350000D03*
D21*
X290750000Y-127800000D03*
D22*
X288290000Y-128270000D03*
X285750000Y-139250000D03*
D23*
X285750000Y-133350000D03*
D22*
X281940000Y-130810000D03*
X280750000Y-137050000D03*
D12*
X280670000Y-133350000D03*
D20*
X280250000Y-133350000D03*
%TD*%
%TO.C,SW44*%
X215050000Y-133350000D03*
D12*
X214630000Y-133350000D03*
D21*
X214550000Y-127800000D03*
D22*
X212090000Y-128270000D03*
X209550000Y-139250000D03*
D23*
X209550000Y-133350000D03*
D22*
X205740000Y-130810000D03*
X204550000Y-137050000D03*
D12*
X204470000Y-133350000D03*
D20*
X204050000Y-133350000D03*
%TD*%
%TO.C,SW38*%
X75350000Y-133350000D03*
D12*
X74930000Y-133350000D03*
D21*
X74850000Y-127800000D03*
D22*
X72390000Y-128270000D03*
X69850000Y-139250000D03*
D23*
X69850000Y-133350000D03*
D22*
X66040000Y-130810000D03*
X64850000Y-137050000D03*
D12*
X64770000Y-133350000D03*
D20*
X64350000Y-133350000D03*
%TD*%
%TO.C,SW2*%
X75350000Y-76200000D03*
D12*
X74930000Y-76200000D03*
D21*
X74850000Y-70650000D03*
D22*
X72390000Y-71120000D03*
X69850000Y-82100000D03*
D23*
X69850000Y-76200000D03*
D22*
X66040000Y-73660000D03*
X64850000Y-79900000D03*
D12*
X64770000Y-76200000D03*
D20*
X64350000Y-76200000D03*
%TD*%
%TO.C,SW51*%
X215050000Y-157480000D03*
D12*
X214630000Y-157480000D03*
D21*
X214550000Y-151930000D03*
D22*
X212090000Y-152400000D03*
X209550000Y-163380000D03*
D23*
X209550000Y-157480000D03*
D22*
X205740000Y-154940000D03*
X204550000Y-161180000D03*
D12*
X204470000Y-157480000D03*
D20*
X204050000Y-157480000D03*
%TD*%
%TO.C,SW47*%
X272200000Y-133350000D03*
D12*
X271780000Y-133350000D03*
D21*
X271700000Y-127800000D03*
D22*
X269240000Y-128270000D03*
X266700000Y-139250000D03*
D23*
X266700000Y-133350000D03*
D22*
X262890000Y-130810000D03*
X261700000Y-137050000D03*
D12*
X261620000Y-133350000D03*
D20*
X261200000Y-133350000D03*
%TD*%
%TO.C,SW46*%
X253150000Y-133350000D03*
D12*
X252730000Y-133350000D03*
D21*
X252650000Y-127800000D03*
D22*
X250190000Y-128270000D03*
X247650000Y-139250000D03*
D23*
X247650000Y-133350000D03*
D22*
X243840000Y-130810000D03*
X242650000Y-137050000D03*
D12*
X242570000Y-133350000D03*
D20*
X242150000Y-133350000D03*
%TD*%
%TO.C,SW35*%
X272200000Y-114300000D03*
D12*
X271780000Y-114300000D03*
D21*
X271700000Y-108750000D03*
D22*
X269240000Y-109220000D03*
X266700000Y-120200000D03*
D23*
X266700000Y-114300000D03*
D22*
X262890000Y-111760000D03*
X261700000Y-118000000D03*
D12*
X261620000Y-114300000D03*
D20*
X261200000Y-114300000D03*
%TD*%
%TO.C,SW12*%
X291250000Y-76200000D03*
D12*
X290830000Y-76200000D03*
D21*
X290750000Y-70650000D03*
D22*
X288290000Y-71120000D03*
X285750000Y-82100000D03*
D23*
X285750000Y-76200000D03*
D22*
X281940000Y-73660000D03*
X280750000Y-79900000D03*
D12*
X280670000Y-76200000D03*
D20*
X280250000Y-76200000D03*
%TD*%
%TO.C,SW29*%
X132500000Y-114300000D03*
D12*
X132080000Y-114300000D03*
D21*
X132000000Y-108750000D03*
D22*
X129540000Y-109220000D03*
X127000000Y-120200000D03*
D23*
X127000000Y-114300000D03*
D22*
X123190000Y-111760000D03*
X122000000Y-118000000D03*
D12*
X121920000Y-114300000D03*
D20*
X121500000Y-114300000D03*
%TD*%
%TO.C,SW28*%
X113450000Y-114300000D03*
D12*
X113030000Y-114300000D03*
D21*
X112950000Y-108750000D03*
D22*
X110490000Y-109220000D03*
X107950000Y-120200000D03*
D23*
X107950000Y-114300000D03*
D22*
X104140000Y-111760000D03*
X102950000Y-118000000D03*
D12*
X102870000Y-114300000D03*
D20*
X102450000Y-114300000D03*
%TD*%
%LPD*%
M02*
