M48
; DRILL file {KiCad 9.0.3} date 2025-11-12T17:47:13+0900
; FORMAT={-:-/ absolute / inch / decimal}
; #@! TF.CreationDate,2025-11-12T17:47:13+09:00
; #@! TF.GenerationSoftware,Kicad,Pcbnew,9.0.3
; #@! TF.FileFunction,Plated,1,2,PTH
FMAT,2
INCH
; #@! TA.AperFunction,Plated,PTH,ViaDrill
T1C0.0118
; #@! TA.AperFunction,Plated,PTH,ComponentDrill
T2C0.0315
; #@! TA.AperFunction,Plated,PTH,ComponentDrill
T3C0.0402
%
G90
G05
T1
X1.625Y-3.375
X1.625Y-4.875
X1.7Y-3.0
X1.7Y-3.75
X1.7Y-4.5
X1.7Y-5.25
X2.45Y-3.0
X2.45Y-3.75
X2.45Y-4.5
X2.45Y-5.25
X2.595Y-2.705
X3.2Y-3.0
X3.2Y-3.75
X3.2Y-4.5
X3.2Y-5.25
X3.95Y-3.0
X3.95Y-3.75
X3.95Y-4.5
X3.95Y-5.25
X3.95Y-6.2
X4.25Y-4.2
X4.7Y-3.0
X4.7Y-3.75
X4.7Y-4.5
X4.7Y-5.25
X4.7Y-6.2
X5.44Y-6.45
X5.45Y-3.0
X5.45Y-3.75
X5.45Y-4.5
X5.45Y-5.25
X6.05Y-3.35
X6.175Y-5.485
X6.305Y-2.655
X6.325Y-3.4
X6.35Y-5.71
X6.375Y-3.205
X6.4493Y-2.9657
X6.45Y-3.435
X6.525Y-5.775
X6.56Y-3.715
X6.565Y-3.065
X6.585Y-3.155
X6.625Y-3.795
X6.625Y-4.5
X6.625Y-5.25
X6.675Y-2.9
X6.715Y-3.795
X6.725Y-5.775
X6.75Y-3.5
X6.795Y-3.05
X6.8Y-2.9
X6.81Y-3.105
X6.85Y-3.55
X6.85Y-5.6
X6.9Y-3.5
X6.9Y-4.85
X6.945Y-2.655
X7.075Y-5.485
X7.2Y-3.0
X7.2Y-3.75
X7.2Y-4.5
X7.2Y-5.25
X7.8Y-6.45
X7.95Y-3.0
X7.95Y-3.75
X7.95Y-4.5
X7.95Y-5.25
X7.95Y-6.2
X8.7Y-3.0
X8.7Y-3.75
X8.7Y-4.5
X8.7Y-5.25
X8.7Y-6.2
X9.0Y-4.2
X9.45Y-3.0
X9.45Y-3.75
X9.45Y-4.5
X9.45Y-5.25
X10.2Y-3.0
X10.2Y-3.75
X10.2Y-4.5
X10.2Y-5.25
X10.845Y-2.665
X10.95Y-3.0
X10.95Y-3.75
X10.95Y-4.5
X10.95Y-5.25
X11.625Y-3.375
X11.625Y-4.875
T2
X6.5266Y-5.657
X6.625Y-5.783
X6.7234Y-5.657
T3
X6.625Y-3.4906
X6.625Y-5.5375
M30
