%TF.GenerationSoftware,KiCad,Pcbnew,9.0.3*%
%TF.CreationDate,2025-10-28T23:03:47+09:00*%
%TF.ProjectId,vespa_plate,76657370-615f-4706-9c61-74652e6b6963,rev?*%
%TF.SameCoordinates,Original*%
%TF.FileFunction,Profile,NP*%
%FSLAX46Y46*%
G04 Gerber Fmt 4.6, Leading zero omitted, Abs format (unit mm)*
G04 Created by KiCad (PCBNEW 9.0.3) date 2025-10-28 23:03:47*
%MOMM*%
%LPD*%
G01*
G04 APERTURE LIST*
%TA.AperFunction,Profile*%
%ADD10C,0.050000*%
%TD*%
%TA.AperFunction,Profile*%
%ADD11C,0.150000*%
%TD*%
G04 APERTURE END LIST*
D10*
X99695000Y-167005000D02*
X135472898Y-167005000D01*
X154831051Y-148698949D02*
G75*
G02*
X156627102Y-147955002I1796049J-1796051D01*
G01*
X36195000Y-142875000D02*
G75*
G02*
X31750000Y-138430000I0J4445000D01*
G01*
X159385000Y-85725000D02*
X159385000Y-88916974D01*
X158750000Y-91423025D02*
G75*
G02*
X159026398Y-90252225I2617800J25D01*
G01*
X158750000Y-91423025D02*
X158750000Y-143510000D01*
X239395000Y-145415000D02*
G75*
G02*
X241935000Y-142875000I2540000J0D01*
G01*
X239395000Y-164465000D02*
G75*
G02*
X236855000Y-167005000I-2540000J0D01*
G01*
X94615000Y-142875000D02*
G75*
G02*
X97155000Y-145415000I0J-2540000D01*
G01*
X177523611Y-90252221D02*
G75*
G02*
X177799989Y-91423025I-2341611J-1170779D01*
G01*
X300355000Y-66675000D02*
X36195000Y-66675000D01*
X177441390Y-90087779D02*
G75*
G02*
X177165012Y-88916974I2341610J1170779D01*
G01*
X177165000Y-88916974D02*
X177165000Y-85725000D01*
X239395000Y-164465000D02*
X239395000Y-145415000D01*
X177523611Y-90252221D02*
X177441390Y-90087779D01*
X31750000Y-71120000D02*
G75*
G02*
X36195000Y-66675000I4445000J0D01*
G01*
X137268949Y-166261051D02*
G75*
G02*
X135472898Y-167004998I-1796049J1796051D01*
G01*
X158750000Y-143510000D02*
X177800000Y-143510000D01*
X304800000Y-138430000D02*
G75*
G02*
X300355000Y-142875000I-4445000J0D01*
G01*
X201077102Y-167005000D02*
G75*
G02*
X199281050Y-166261052I-2J2540000D01*
G01*
X177800000Y-143510000D02*
X177800000Y-91423025D01*
X159108610Y-90087779D02*
X159026389Y-90252221D01*
X300355000Y-66675000D02*
G75*
G02*
X304800000Y-71120000I0J-4445000D01*
G01*
X300355000Y-142875000D02*
X241935000Y-142875000D01*
X304800000Y-138430000D02*
X304800000Y-71120000D01*
X159385000Y-88916974D02*
G75*
G02*
X159108602Y-90087775I-2617800J-26D01*
G01*
X99695000Y-167005000D02*
G75*
G02*
X97155000Y-164465000I0J2540000D01*
G01*
X181718949Y-148698949D02*
X199281051Y-166261051D01*
X137268949Y-166261051D02*
X154831051Y-148698949D01*
X36195000Y-142875000D02*
X94615000Y-142875000D01*
X179922898Y-147955000D02*
G75*
G02*
X181718950Y-148698948I2J-2540000D01*
G01*
X156627102Y-147955000D02*
X179922898Y-147955000D01*
X159385000Y-85725000D02*
X177165000Y-85725000D01*
X31750000Y-71120000D02*
X31750000Y-138430000D01*
X201077102Y-167005000D02*
X236855000Y-167005000D01*
X97155000Y-164465000D02*
X97155000Y-145415000D01*
D11*
%TO.C,SW2*%
X278700000Y-107250000D02*
X292800000Y-107250000D01*
X278700000Y-121350000D02*
X278700000Y-107250000D01*
X292800000Y-107250000D02*
X292800000Y-121350000D01*
X292800000Y-121350000D02*
X278700000Y-121350000D01*
X119950000Y-107250000D02*
X134050000Y-107250000D01*
X119950000Y-121350000D02*
X119950000Y-107250000D01*
X134050000Y-107250000D02*
X134050000Y-121350000D01*
X134050000Y-121350000D02*
X119950000Y-121350000D01*
X119950000Y-150430000D02*
X134050000Y-150430000D01*
X119950000Y-164530000D02*
X119950000Y-150430000D01*
X134050000Y-150430000D02*
X134050000Y-164530000D01*
X134050000Y-164530000D02*
X119950000Y-164530000D01*
X240600000Y-107250000D02*
X254700000Y-107250000D01*
X240600000Y-121350000D02*
X240600000Y-107250000D01*
X254700000Y-107250000D02*
X254700000Y-121350000D01*
X254700000Y-121350000D02*
X240600000Y-121350000D01*
X62800000Y-88200000D02*
X76900000Y-88200000D01*
X62800000Y-102300000D02*
X62800000Y-88200000D01*
X76900000Y-88200000D02*
X76900000Y-102300000D01*
X76900000Y-102300000D02*
X62800000Y-102300000D01*
X202500000Y-107250000D02*
X216600000Y-107250000D01*
X202500000Y-121350000D02*
X202500000Y-107250000D01*
X216600000Y-107250000D02*
X216600000Y-121350000D01*
X216600000Y-121350000D02*
X202500000Y-121350000D01*
X202500000Y-88200000D02*
X216600000Y-88200000D01*
X202500000Y-102300000D02*
X202500000Y-88200000D01*
X216600000Y-88200000D02*
X216600000Y-102300000D01*
X216600000Y-102300000D02*
X202500000Y-102300000D01*
X221550000Y-88200000D02*
X235650000Y-88200000D01*
X221550000Y-102300000D02*
X221550000Y-88200000D01*
X235650000Y-88200000D02*
X235650000Y-102300000D01*
X235650000Y-102300000D02*
X221550000Y-102300000D01*
X259650000Y-88200000D02*
X273750000Y-88200000D01*
X259650000Y-102300000D02*
X259650000Y-88200000D01*
X273750000Y-88200000D02*
X273750000Y-102300000D01*
X273750000Y-102300000D02*
X259650000Y-102300000D01*
X139000000Y-126300000D02*
X153100000Y-126300000D01*
X139000000Y-140400000D02*
X139000000Y-126300000D01*
X153100000Y-126300000D02*
X153100000Y-140400000D01*
X153100000Y-140400000D02*
X139000000Y-140400000D01*
X100900000Y-126300000D02*
X115000000Y-126300000D01*
X100900000Y-140400000D02*
X100900000Y-126300000D01*
X115000000Y-126300000D02*
X115000000Y-140400000D01*
X115000000Y-140400000D02*
X100900000Y-140400000D01*
X119950000Y-88200000D02*
X134050000Y-88200000D01*
X119950000Y-102300000D02*
X119950000Y-88200000D01*
X134050000Y-88200000D02*
X134050000Y-102300000D01*
X134050000Y-102300000D02*
X119950000Y-102300000D01*
X43750000Y-88200000D02*
X57850000Y-88200000D01*
X43750000Y-102300000D02*
X43750000Y-88200000D01*
X57850000Y-88200000D02*
X57850000Y-102300000D01*
X57850000Y-102300000D02*
X43750000Y-102300000D01*
X202500000Y-69150000D02*
X216600000Y-69150000D01*
X202500000Y-83250000D02*
X202500000Y-69150000D01*
X216600000Y-69150000D02*
X216600000Y-83250000D01*
X216600000Y-83250000D02*
X202500000Y-83250000D01*
X119950000Y-69150000D02*
X134050000Y-69150000D01*
X119950000Y-83250000D02*
X119950000Y-69150000D01*
X134050000Y-69150000D02*
X134050000Y-83250000D01*
X134050000Y-83250000D02*
X119950000Y-83250000D01*
X81850000Y-88200000D02*
X95950000Y-88200000D01*
X81850000Y-102300000D02*
X81850000Y-88200000D01*
X95950000Y-88200000D02*
X95950000Y-102300000D01*
X95950000Y-102300000D02*
X81850000Y-102300000D01*
X81850000Y-107250000D02*
X95950000Y-107250000D01*
X81850000Y-121350000D02*
X81850000Y-107250000D01*
X95950000Y-107250000D02*
X95950000Y-121350000D01*
X95950000Y-121350000D02*
X81850000Y-121350000D01*
X221550000Y-150430000D02*
X235650000Y-150430000D01*
X221550000Y-164530000D02*
X221550000Y-150430000D01*
X235650000Y-150430000D02*
X235650000Y-164530000D01*
X235650000Y-164530000D02*
X221550000Y-164530000D01*
X183450000Y-107250000D02*
X197550000Y-107250000D01*
X183450000Y-121350000D02*
X183450000Y-107250000D01*
X197550000Y-107250000D02*
X197550000Y-121350000D01*
X197550000Y-121350000D02*
X183450000Y-121350000D01*
X43750000Y-126300000D02*
X57850000Y-126300000D01*
X43750000Y-140400000D02*
X43750000Y-126300000D01*
X57850000Y-126300000D02*
X57850000Y-140400000D01*
X57850000Y-140400000D02*
X43750000Y-140400000D01*
X183450000Y-126300000D02*
X197550000Y-126300000D01*
X183450000Y-140400000D02*
X183450000Y-126300000D01*
X197550000Y-126300000D02*
X197550000Y-140400000D01*
X197550000Y-140400000D02*
X183450000Y-140400000D01*
X240600000Y-88200000D02*
X254700000Y-88200000D01*
X240600000Y-102300000D02*
X240600000Y-88200000D01*
X254700000Y-88200000D02*
X254700000Y-102300000D01*
X254700000Y-102300000D02*
X240600000Y-102300000D01*
X139000000Y-88200000D02*
X153100000Y-88200000D01*
X139000000Y-102300000D02*
X139000000Y-88200000D01*
X153100000Y-88200000D02*
X153100000Y-102300000D01*
X153100000Y-102300000D02*
X139000000Y-102300000D01*
X81850000Y-69150000D02*
X95950000Y-69150000D01*
X81850000Y-83250000D02*
X81850000Y-69150000D01*
X95950000Y-69150000D02*
X95950000Y-83250000D01*
X95950000Y-83250000D02*
X81850000Y-83250000D01*
X202500000Y-126300000D02*
X216600000Y-126300000D01*
X202500000Y-140400000D02*
X202500000Y-126300000D01*
X216600000Y-126300000D02*
X216600000Y-140400000D01*
X216600000Y-140400000D02*
X202500000Y-140400000D01*
X259650000Y-126300000D02*
X273750000Y-126300000D01*
X259650000Y-140400000D02*
X259650000Y-126300000D01*
X273750000Y-126300000D02*
X273750000Y-140400000D01*
X273750000Y-140400000D02*
X259650000Y-140400000D01*
X240600000Y-126300000D02*
X254700000Y-126300000D01*
X240600000Y-140400000D02*
X240600000Y-126300000D01*
X254700000Y-126300000D02*
X254700000Y-140400000D01*
X254700000Y-140400000D02*
X240600000Y-140400000D01*
X259650000Y-107250000D02*
X273750000Y-107250000D01*
X259650000Y-121350000D02*
X259650000Y-107250000D01*
X273750000Y-107250000D02*
X273750000Y-121350000D01*
X273750000Y-121350000D02*
X259650000Y-121350000D01*
X62800000Y-107250000D02*
X76900000Y-107250000D01*
X62800000Y-121350000D02*
X62800000Y-107250000D01*
X76900000Y-107250000D02*
X76900000Y-121350000D01*
X76900000Y-121350000D02*
X62800000Y-121350000D01*
X119950000Y-126300000D02*
X134050000Y-126300000D01*
X119950000Y-140400000D02*
X119950000Y-126300000D01*
X134050000Y-126300000D02*
X134050000Y-140400000D01*
X134050000Y-140400000D02*
X119950000Y-140400000D01*
X278700000Y-69150000D02*
X292800000Y-69150000D01*
X278700000Y-83250000D02*
X278700000Y-69150000D01*
X292800000Y-69150000D02*
X292800000Y-83250000D01*
X292800000Y-83250000D02*
X278700000Y-83250000D01*
X202500000Y-150430000D02*
X216600000Y-150430000D01*
X202500000Y-164530000D02*
X202500000Y-150430000D01*
X216600000Y-150430000D02*
X216600000Y-164530000D01*
X216600000Y-164530000D02*
X202500000Y-164530000D01*
X221550000Y-126300000D02*
X235650000Y-126300000D01*
X221550000Y-140400000D02*
X221550000Y-126300000D01*
X235650000Y-126300000D02*
X235650000Y-140400000D01*
X235650000Y-140400000D02*
X221550000Y-140400000D01*
X278700000Y-126300000D02*
X292800000Y-126300000D01*
X278700000Y-140400000D02*
X278700000Y-126300000D01*
X292800000Y-126300000D02*
X292800000Y-140400000D01*
X292800000Y-140400000D02*
X278700000Y-140400000D01*
X62800000Y-126300000D02*
X76900000Y-126300000D01*
X62800000Y-140400000D02*
X62800000Y-126300000D01*
X76900000Y-126300000D02*
X76900000Y-140400000D01*
X76900000Y-140400000D02*
X62800000Y-140400000D01*
X221550000Y-107250000D02*
X235650000Y-107250000D01*
X221550000Y-121350000D02*
X221550000Y-107250000D01*
X235650000Y-107250000D02*
X235650000Y-121350000D01*
X235650000Y-121350000D02*
X221550000Y-121350000D01*
X100900000Y-107250000D02*
X115000000Y-107250000D01*
X100900000Y-121350000D02*
X100900000Y-107250000D01*
X115000000Y-107250000D02*
X115000000Y-121350000D01*
X115000000Y-121350000D02*
X100900000Y-121350000D01*
X100900000Y-69150000D02*
X115000000Y-69150000D01*
X100900000Y-83250000D02*
X100900000Y-69150000D01*
X115000000Y-69150000D02*
X115000000Y-83250000D01*
X115000000Y-83250000D02*
X100900000Y-83250000D01*
X43750000Y-69150000D02*
X57850000Y-69150000D01*
X43750000Y-83250000D02*
X43750000Y-69150000D01*
X57850000Y-69150000D02*
X57850000Y-83250000D01*
X57850000Y-83250000D02*
X43750000Y-83250000D01*
X240600000Y-69150000D02*
X254700000Y-69150000D01*
X240600000Y-83250000D02*
X240600000Y-69150000D01*
X254700000Y-69150000D02*
X254700000Y-83250000D01*
X254700000Y-83250000D02*
X240600000Y-83250000D01*
X81850000Y-126300000D02*
X95950000Y-126300000D01*
X81850000Y-140400000D02*
X81850000Y-126300000D01*
X95950000Y-126300000D02*
X95950000Y-140400000D01*
X95950000Y-140400000D02*
X81850000Y-140400000D01*
X278700000Y-88200000D02*
X292800000Y-88200000D01*
X278700000Y-102300000D02*
X278700000Y-88200000D01*
X292800000Y-88200000D02*
X292800000Y-102300000D01*
X292800000Y-102300000D02*
X278700000Y-102300000D01*
X259650000Y-69150000D02*
X273750000Y-69150000D01*
X259650000Y-83250000D02*
X259650000Y-69150000D01*
X273750000Y-69150000D02*
X273750000Y-83250000D01*
X273750000Y-83250000D02*
X259650000Y-83250000D01*
X100900000Y-150430000D02*
X115000000Y-150430000D01*
X100900000Y-164530000D02*
X100900000Y-150430000D01*
X115000000Y-150430000D02*
X115000000Y-164530000D01*
X115000000Y-164530000D02*
X100900000Y-164530000D01*
X139000000Y-69150000D02*
X153100000Y-69150000D01*
X139000000Y-83250000D02*
X139000000Y-69150000D01*
X153100000Y-69150000D02*
X153100000Y-83250000D01*
X153100000Y-83250000D02*
X139000000Y-83250000D01*
X183450000Y-88200000D02*
X197550000Y-88200000D01*
X183450000Y-102300000D02*
X183450000Y-88200000D01*
X197550000Y-88200000D02*
X197550000Y-102300000D01*
X197550000Y-102300000D02*
X183450000Y-102300000D01*
X183450000Y-69150000D02*
X197550000Y-69150000D01*
X183450000Y-83250000D02*
X183450000Y-69150000D01*
X197550000Y-69150000D02*
X197550000Y-83250000D01*
X197550000Y-83250000D02*
X183450000Y-83250000D01*
X62800000Y-69150000D02*
X76900000Y-69150000D01*
X62800000Y-83250000D02*
X62800000Y-69150000D01*
X76900000Y-69150000D02*
X76900000Y-83250000D01*
X76900000Y-83250000D02*
X62800000Y-83250000D01*
X43750000Y-107250000D02*
X57850000Y-107250000D01*
X43750000Y-121350000D02*
X43750000Y-107250000D01*
X57850000Y-107250000D02*
X57850000Y-121350000D01*
X57850000Y-121350000D02*
X43750000Y-121350000D01*
X221550000Y-69150000D02*
X235650000Y-69150000D01*
X221550000Y-83250000D02*
X221550000Y-69150000D01*
X235650000Y-69150000D02*
X235650000Y-83250000D01*
X235650000Y-83250000D02*
X221550000Y-83250000D01*
X139000000Y-107250000D02*
X153100000Y-107250000D01*
X139000000Y-121350000D02*
X139000000Y-107250000D01*
X153100000Y-107250000D02*
X153100000Y-121350000D01*
X153100000Y-121350000D02*
X139000000Y-121350000D01*
X100900000Y-88200000D02*
X115000000Y-88200000D01*
X100900000Y-102300000D02*
X100900000Y-88200000D01*
X115000000Y-88200000D02*
X115000000Y-102300000D01*
X115000000Y-102300000D02*
X100900000Y-102300000D01*
%TD*%
M02*
